<?xml version="1.0" encoding="UTF-8"?><svg id="Layer_1" xmlns="http://www.w3.org/2000/svg" width="1920" height="1080" xmlns:xlink="http://www.w3.org/1999/xlink" viewBox="0 0 1920 1080"><defs><style>.cls-1{fill:url(#Oak);}.cls-1,.cls-2,.cls-3,.cls-4,.cls-5,.cls-6,.cls-7,.cls-8,.cls-9,.cls-10,.cls-11,.cls-12,.cls-13,.cls-14,.cls-15,.cls-16,.cls-17,.cls-18,.cls-19,.cls-20,.cls-21,.cls-22,.cls-23,.cls-24,.cls-25,.cls-26,.cls-27,.cls-28,.cls-29,.cls-30,.cls-31,.cls-32,.cls-33,.cls-34,.cls-35,.cls-36,.cls-37,.cls-38,.cls-39,.cls-40,.cls-41,.cls-42,.cls-43,.cls-44,.cls-45,.cls-46,.cls-47,.cls-48,.cls-49,.cls-50,.cls-51,.cls-52,.cls-53,.cls-54,.cls-55,.cls-56,.cls-57,.cls-58,.cls-59,.cls-60,.cls-61,.cls-62,.cls-63,.cls-64,.cls-65,.cls-66,.cls-67,.cls-68,.cls-69,.cls-70,.cls-71,.cls-72,.cls-73,.cls-74,.cls-75,.cls-76,.cls-77,.cls-78,.cls-79,.cls-80,.cls-81,.cls-82,.cls-83,.cls-84,.cls-85,.cls-86,.cls-87,.cls-88,.cls-89,.cls-90,.cls-91,.cls-92,.cls-93,.cls-94,.cls-95,.cls-96,.cls-97,.cls-98,.cls-99,.cls-100,.cls-101,.cls-102,.cls-103,.cls-104,.cls-105,.cls-106,.cls-107,.cls-108{stroke-miterlimit:10;}.cls-1,.cls-2,.cls-3,.cls-5,.cls-6,.cls-7,.cls-8,.cls-9,.cls-10,.cls-11,.cls-12,.cls-15,.cls-16,.cls-17,.cls-18,.cls-19,.cls-20,.cls-21,.cls-22,.cls-23,.cls-24,.cls-25,.cls-26,.cls-27,.cls-28,.cls-29,.cls-30,.cls-31,.cls-32,.cls-33,.cls-34,.cls-35,.cls-36,.cls-37,.cls-38,.cls-39,.cls-40,.cls-41,.cls-42,.cls-43,.cls-44,.cls-45,.cls-46,.cls-47,.cls-48,.cls-49,.cls-50,.cls-51,.cls-52,.cls-53,.cls-54,.cls-55,.cls-56,.cls-57,.cls-58,.cls-59,.cls-60,.cls-61,.cls-62,.cls-63,.cls-64,.cls-65,.cls-66,.cls-67,.cls-68,.cls-69,.cls-70,.cls-71,.cls-72,.cls-73,.cls-74,.cls-75,.cls-76,.cls-77,.cls-78,.cls-79,.cls-80,.cls-81,.cls-82,.cls-83,.cls-84,.cls-85,.cls-86,.cls-87,.cls-88,.cls-89,.cls-90,.cls-91,.cls-92,.cls-93,.cls-94,.cls-95,.cls-96,.cls-97,.cls-98,.cls-99,.cls-101,.cls-104,.cls-106,.cls-107,.cls-108{stroke:#000;}.cls-1,.cls-2,.cls-3,.cls-101,.cls-102,.cls-103,.cls-105,.cls-106,.cls-107{stroke-width:3px;}.cls-2{fill:url(#Ash);}.cls-3{fill:url(#Oak-2);}.cls-4,.cls-95,.cls-105,.cls-109{fill:#fff;}.cls-4,.cls-100{stroke-width:2px;}.cls-4,.cls-100,.cls-102,.cls-103,.cls-105{stroke:#603813;}.cls-5{fill:url(#Pecan-3);}.cls-6{fill:url(#Pecan-2);}.cls-7{fill:url(#Pecan-9);}.cls-8{fill:url(#Pecan-8);}.cls-9{fill:url(#Pecan-5);}.cls-10{fill:url(#Pecan-4);}.cls-11{fill:url(#Pecan-6);}.cls-12{fill:url(#Pecan-7);}.cls-13{fill:#a19065;stroke:#5f502f;stroke-width:18px;}.cls-14{fill:#c3996b;stroke:#231f20;stroke-width:.25px;}.cls-15{fill:url(#Pecan-88);}.cls-16{fill:url(#Pecan-86);}.cls-17{fill:url(#Pecan-64);}.cls-18{fill:url(#Pecan-63);}.cls-19{fill:url(#Pecan-87);}.cls-20{fill:url(#Pecan-89);}.cls-21{fill:url(#Pecan-85);}.cls-22{fill:url(#Pecan-30);}.cls-23{fill:url(#Pecan-31);}.cls-24{fill:url(#Pecan-32);}.cls-25{fill:url(#Pecan-33);}.cls-26{fill:url(#Pecan-40);}.cls-27{fill:url(#Pecan-41);}.cls-28{fill:url(#Pecan-42);}.cls-29{fill:url(#Pecan-37);}.cls-30{fill:url(#Pecan-56);}.cls-31{fill:url(#Pecan-43);}.cls-32{fill:url(#Pecan-36);}.cls-33{fill:url(#Pecan-39);}.cls-34{fill:url(#Pecan-38);}.cls-35{fill:url(#Pecan-29);}.cls-36{fill:url(#Pecan-57);}.cls-37{fill:url(#Pecan-24);}.cls-38{fill:url(#Pecan-23);}.cls-39{fill:url(#Pecan-20);}.cls-40{fill:url(#Pecan-69);}.cls-41{fill:url(#Pecan-34);}.cls-42{fill:url(#Pecan-35);}.cls-43{fill:url(#Pecan-28);}.cls-44{fill:url(#Pecan-27);}.cls-45{fill:url(#Pecan-26);}.cls-46{fill:url(#Pecan-65);}.cls-47{fill:url(#Pecan-78);}.cls-48{fill:url(#Pecan-47);}.cls-49{fill:url(#Pecan-75);}.cls-50{fill:url(#Pecan-77);}.cls-51{fill:url(#Pecan-76);}.cls-52{fill:url(#Pecan-79);}.cls-53{fill:url(#Pecan-21);}.cls-54{fill:url(#Pecan-22);}.cls-55{fill:url(#Pecan-67);}.cls-56{fill:url(#Pecan-68);}.cls-57{fill:url(#Pecan-66);}.cls-58{fill:url(#Pecan-51);}.cls-59{fill:url(#Pecan-52);}.cls-60{fill:url(#Pecan-45);}.cls-61{fill:url(#Pecan-53);}.cls-62{fill:url(#Pecan-44);}.cls-63{fill:url(#Pecan-48);}.cls-64{fill:url(#Pecan-49);}.cls-65{fill:url(#Pecan-50);}.cls-66{fill:url(#Pecan-62);}.cls-67{fill:url(#Pecan-61);}.cls-68{fill:url(#Pecan-46);}.cls-69{fill:url(#Pecan-60);}.cls-70{fill:url(#Pecan-54);}.cls-71{fill:url(#Pecan-55);}.cls-72{fill:url(#Pecan-25);}.cls-73{fill:url(#Pecan-58);}.cls-74{fill:url(#Pecan-59);}.cls-75{fill:url(#Pecan-10);}.cls-76{fill:url(#Pecan-11);}.cls-77{fill:url(#Pecan-12);}.cls-78{fill:url(#Pecan-14);}.cls-79{fill:url(#Pecan-13);}.cls-80{fill:url(#Pecan-83);}.cls-81{fill:url(#Pecan-80);}.cls-82{fill:url(#Pecan-84);}.cls-83{fill:url(#Pecan-82);}.cls-84{fill:url(#Pecan-81);}.cls-85{fill:url(#Pecan-15);}.cls-86{fill:url(#Pecan-16);}.cls-87{fill:url(#Pecan-73);}.cls-88{fill:url(#Pecan-74);}.cls-89{fill:url(#Pecan-71);}.cls-90{fill:url(#Pecan-70);}.cls-91{fill:url(#Pecan-17);}.cls-92{fill:url(#Pecan-18);}.cls-93{fill:url(#Pecan-19);}.cls-94{fill:url(#Pecan-72);}.cls-96,.cls-106{fill:#e6e6e6;}.cls-97{fill:#d8f0f7;}.cls-98{fill:#beb299;}.cls-99{fill:#736357;}.cls-100{fill:none;}.cls-101{fill:url(#Teak);}.cls-102{fill:#c1b49a;}.cls-103{fill:#9a8479;}.cls-104{fill:url(#Pecan);}.cls-110,.cls-111,.cls-112,.cls-113,.cls-114,.cls-115,.cls-116,.cls-117,.cls-118,.cls-119,.cls-120,.cls-121,.cls-122,.cls-123,.cls-124,.cls-109{stroke-width:0px;}.cls-107{fill:url(#Zebra_Wood);}.cls-108{fill:url(#Red_Maple);}.cls-111{fill:#603813;}.cls-112{fill:#53180a;}.cls-113{fill:#4d4d4d;}.cls-114{fill:#29b473;}.cls-115{fill:#6d6e70;}.cls-116{fill:#808184;}.cls-117{fill:#3b2314;}.cls-118{fill:#58595b;}.cls-119{fill:#451a02;}.cls-120{fill:#421e0e;}.cls-121{fill:#42210b;}.cls-122{fill:#231f20;}.cls-123{fill:#ccc;}.cls-124{fill:#b3b3b3;}</style><linearGradient id="Ash" x1="1344.5" y1="354.42" x2="1920" y2="354.42" gradientUnits="userSpaceOnUse"><stop offset=".01" stop-color="#fbefd0"/><stop offset=".17" stop-color="#fadba2"/><stop offset=".3" stop-color="#fae3b0"/><stop offset=".54" stop-color="#e8cfa1"/><stop offset=".66" stop-color="#f0d3a1"/><stop offset=".78" stop-color="#fbeed2"/><stop offset=".96" stop-color="#f9e2ba"/></linearGradient><linearGradient id="Red_Maple" x1="0" y1="401.54" x2="1346.92" y2="401.54" gradientUnits="userSpaceOnUse"><stop offset="0" stop-color="#7d4613"/><stop offset=".24" stop-color="#8d5925"/><stop offset=".46" stop-color="#743b18"/><stop offset=".63" stop-color="#8d5925"/><stop offset=".77" stop-color="#743b18"/><stop offset=".87" stop-color="#7c4412"/><stop offset=".99" stop-color="#743b18"/></linearGradient><linearGradient id="Oak" x1="1443.5" y1="467.46" x2="1920.5" y2="467.46" gradientUnits="userSpaceOnUse"><stop offset=".12" stop-color="#c9a063"/><stop offset=".26" stop-color="#9d7548"/><stop offset=".49" stop-color="#e4b877"/><stop offset=".63" stop-color="#9d7548"/><stop offset=".76" stop-color="#c9a063"/><stop offset=".93" stop-color="#d6b378"/><stop offset=".99" stop-color="#d8aa61"/></linearGradient><linearGradient id="Oak-2" y1="188.25" x2="1520" y2="188.25" xlink:href="#Oak"/><linearGradient id="Pecan" x1="1018.5" y1="97" x2="1344.5" y2="97" gradientUnits="userSpaceOnUse"><stop offset="0" stop-color="#aa7541"/><stop offset=".19" stop-color="#855636"/><stop offset=".34" stop-color="#af7640"/><stop offset=".49" stop-color="#aa7541"/><stop offset=".63" stop-color="#855636"/><stop offset=".97" stop-color="#af7640"/></linearGradient><linearGradient id="Pecan-2" x1="1111.5" y1="132.31" y2="132.31" xlink:href="#Pecan"/><linearGradient id="Pecan-3" x1="785.39" y1="208.62" x2="1111.39" y2="208.62" xlink:href="#Pecan"/><linearGradient id="Pecan-4" x1="785.5" y1="174.62" x2="1018.5" y2="174.62" xlink:href="#Pecan"/><linearGradient id="Pecan-5" x1="1192.99" y1="165.05" x2="1346.5" y2="165.05" xlink:href="#Pecan"/><linearGradient id="Pecan-6" x1="960.5" y1="221.62" x2="1193.5" y2="221.62" xlink:href="#Pecan"/><linearGradient id="Pecan-7" x1="856.08" y1="266.78" x2="960.5" y2="266.78" xlink:href="#Pecan"/><linearGradient id="Pecan-8" x1="1242.08" y1="20.8" x2="1346.43" y2="20.8" xlink:href="#Pecan"/><linearGradient id="Pecan-9" x1="1008.5" y1="64.62" x2="1241.5" y2="64.62" xlink:href="#Pecan"/><linearGradient id="Pecan-10" x1="855.99" y1="118.62" x2="1009.5" y2="118.62" xlink:href="#Pecan"/><linearGradient id="Pecan-11" x1="702.99" y1="163.62" x2="856.5" y2="163.62" xlink:href="#Pecan"/><linearGradient id="Pecan-12" x1="932.39" y1="36.4" x2="1258.39" y2="36.4" xlink:href="#Pecan"/><linearGradient id="Pecan-13" x1="606.39" y1="118.62" x2="932.39" y2="118.62" xlink:href="#Pecan"/><linearGradient id="Pecan-14" x1="681.08" y1="221.15" x2="785.5" y2="221.15" xlink:href="#Pecan"/><linearGradient id="Pecan-15" x1="991.08" y1="4.87" x2="1095.5" y2="4.87" xlink:href="#Pecan"/><linearGradient id="Pecan-16" x1="1242.08" y1="208.15" x2="1346.5" y2="208.15" xlink:href="#Pecan"/><linearGradient id="Pecan-17" x1="916" y1="267.16" x2="1242" y2="267.16" xlink:href="#Pecan"/><linearGradient id="Pecan-18" x1="530" y1="322.16" x2="856" y2="322.16" xlink:href="#Pecan"/><linearGradient id="Pecan-19" x1="762.17" y1="332" x2="917.5" y2="332" xlink:href="#Pecan"/><linearGradient id="Pecan-20" x1="1111.5" y1="274.16" y2="274.16" xlink:href="#Pecan"/><linearGradient id="Pecan-21" x1="785" y1="348.16" x2="1111" y2="348.16" xlink:href="#Pecan"/><linearGradient id="Pecan-22" x1="761.5" y1="38.16" x2="994.5" y2="38.16" xlink:href="#Pecan"/><linearGradient id="Pecan-23" x1="530.5" y1="379.98" x2="763" y2="379.98" xlink:href="#Pecan"/><linearGradient id="Pecan-24" x1="1076.53" y1="321.81" y2="321.81" xlink:href="#Pecan"/><linearGradient id="Pecan-25" x1="1192.99" y1="354.17" x2="1346.5" y2="354.17" xlink:href="#Pecan"/><linearGradient id="Pecan-26" x1="1042.99" y1="390.17" x2="1196.5" y2="390.17" xlink:href="#Pecan"/><linearGradient id="Pecan-27" x1="1111.5" y1="405.17" y2="405.17" xlink:href="#Pecan"/><linearGradient id="Pecan-28" x1="1111.5" y1="450.17" y2="450.17" xlink:href="#Pecan"/><linearGradient id="Pecan-29" x1="557.5" y1="417.05" x2="790.5" y2="417.05" xlink:href="#Pecan"/><linearGradient id="Pecan-30" x1="475.5" y1="218.05" x2="708.5" y2="218.05" xlink:href="#Pecan"/><linearGradient id="Pecan-31" x1="530.5" y1="106.05" x2="763.5" y2="106.05" xlink:href="#Pecan"/><linearGradient id="Pecan-32" x1="426.08" y1="425.05" x2="530.5" y2="425.05" xlink:href="#Pecan"/><linearGradient id="Pecan-33" x1="503.34" y1="179.22" x2="608.5" y2="179.22" xlink:href="#Pecan"/><linearGradient id="Pecan-34" x1="826.08" y1="4.7" x2="930.5" y2="4.7" xlink:href="#Pecan"/><linearGradient id="Pecan-35" x1="727.08" y1="24.54" x2="831.5" y2="24.54" xlink:href="#Pecan"/><linearGradient id="Pecan-36" x1="556.5" y1="279.5" x2="789.5" y2="279.5" xlink:href="#Pecan"/><linearGradient id="Pecan-37" x1="193.5" y1="473.5" x2="426.5" y2="473.5" xlink:href="#Pecan"/><linearGradient id="Pecan-38" x1="296.5" y1="398.5" x2="529.5" y2="398.5" xlink:href="#Pecan"/><linearGradient id="Pecan-39" x1="193.08" y1="450.5" x2="297.5" y2="450.5" xlink:href="#Pecan"/><linearGradient id="Pecan-40" x1="453.08" y1="326.16" x2="557.5" y2="326.16" xlink:href="#Pecan"/><linearGradient id="Pecan-41" x1="533.99" y1="253.16" x2="687.5" y2="253.16" xlink:href="#Pecan"/><linearGradient id="Pecan-42" x1="137.5" y1="530.16" x2="370.5" y2="530.16" xlink:href="#Pecan"/><linearGradient id="Pecan-43" x1="-95.5" y1="584.87" x2="137.5" y2="584.87" xlink:href="#Pecan"/><linearGradient id="Pecan-44" x1="306.5" y1="303.16" x2="539.5" y2="303.16" xlink:href="#Pecan"/><linearGradient id="Pecan-45" x1="271.5" y1="230.16" x2="504.5" y2="230.16" xlink:href="#Pecan"/><linearGradient id="Pecan-46" x1="207.12" y1="187.4" x2="533.12" y2="187.4" xlink:href="#Pecan"/><linearGradient id="Pecan-47" x1="152.12" y1="290.4" x2="478.12" y2="290.4" xlink:href="#Pecan"/><linearGradient id="Pecan-48" x1="573.99" y1="61.28" x2="727.5" y2="61.28" xlink:href="#Pecan"/><linearGradient id="Pecan-49" x1="420.99" y1="106.28" x2="574.5" y2="106.28" xlink:href="#Pecan"/><linearGradient id="Pecan-50" x1="225.5" y1="373.65" x2="458.5" y2="373.65" xlink:href="#Pecan"/><linearGradient id="Pecan-51" x1="-10.81" y1="378.16" x2="315.19" y2="378.16" xlink:href="#Pecan"/><linearGradient id="Pecan-52" x1="-39.5" y1="535.85" x2="193.5" y2="535.85" xlink:href="#Pecan"/><linearGradient id="Pecan-53" x1="534.5" y1="31.18" x2="767.5" y2="31.18" xlink:href="#Pecan"/><linearGradient id="Pecan-54" x1="207.66" y1="94.6" x2="533.66" y2="94.6" xlink:href="#Pecan"/><linearGradient id="Pecan-55" x1="167.08" y1="267.42" x2="271.5" y2="267.42" xlink:href="#Pecan"/><linearGradient id="Pecan-56" x1="38.99" y1="482.7" x2="192.5" y2="482.7" xlink:href="#Pecan"/><linearGradient id="Pecan-57" x1="462.99" y1="13.58" x2="616.5" y2="13.58" xlink:href="#Pecan"/><linearGradient id="Pecan-58" x1="-.5" y1="438.34" x2="232.5" y2="438.34" xlink:href="#Pecan"/><linearGradient id="Pecan-59" x1="219.99" y1="562.34" x2="373.5" y2="562.34" xlink:href="#Pecan"/><linearGradient id="Pecan-60" x1="56.23" y1="630.5" x2="382.23" y2="630.5" xlink:href="#Pecan"/><linearGradient id="Pecan-61" x1="271.08" y1="643.53" x2="375.5" y2="643.53" xlink:href="#Pecan"/><linearGradient id="Pecan-62" x1="-106.46" y1="617.41" x2="219.54" y2="617.41" xlink:href="#Pecan"/><linearGradient id="Pecan-63" x1="56.54" y1="721.01" x2="382.54" y2="721.01" xlink:href="#Pecan"/><linearGradient id="Pecan-64" x1="116.99" y1="680" x2="270.5" y2="680" xlink:href="#Pecan"/><linearGradient id="Pecan-65" x1="-29.01" y1="718.92" x2="124.5" y2="718.92" xlink:href="#Pecan"/><linearGradient id="Pecan-66" x1="-39.92" y1="683.69" x2="64.5" y2="683.69" xlink:href="#Pecan"/><linearGradient id="Pecan-67" x1="-39.92" y1="772.65" x2="64.5" y2="772.65" xlink:href="#Pecan"/><linearGradient id="Pecan-68" x1="-66.5" y1="310.3" x2="166.5" y2="310.3" xlink:href="#Pecan"/><linearGradient id="Pecan-69" x1="-66.5" y1="352.32" x2="166.5" y2="352.32" xlink:href="#Pecan"/><linearGradient id="Pecan-70" x1="-62.92" y1="510.69" x2="41.5" y2="510.69" xlink:href="#Pecan"/><linearGradient id="Pecan-71" x1="55.99" y1="247.26" x2="209.5" y2="247.26" xlink:href="#Pecan"/><linearGradient id="Pecan-72" x1="-39.92" y1="276.64" x2="64.5" y2="276.64" xlink:href="#Pecan"/><linearGradient id="Pecan-73" x1="100.49" y1="171.74" x2="426.49" y2="171.74" xlink:href="#Pecan"/><linearGradient id="Pecan-74" x1="143.49" y1="64.74" x2="469.49" y2="64.74" xlink:href="#Pecan"/><linearGradient id="Pecan-75" x1="292.99" y1="13.13" x2="446.5" y2="13.13" xlink:href="#Pecan"/><linearGradient id="Pecan-76" x1="-47.01" y1="231.28" x2="106.5" y2="231.28" xlink:href="#Pecan"/><linearGradient id="Pecan-77" x1="-16.5" y1="168.4" x2="216.5" y2="168.4" xlink:href="#Pecan"/><linearGradient id="Pecan-78" x1="-87.5" y1="130.32" x2="145.5" y2="130.32" xlink:href="#Pecan"/><linearGradient id="Pecan-79" x1="64.5" y1="49.73" x2="297.5" y2="49.73" xlink:href="#Pecan"/><linearGradient id="Pecan-80" x1="-39.92" y1="93.86" x2="64.5" y2="93.86" xlink:href="#Pecan"/><linearGradient id="Pecan-81" x1="165.08" y1="9.68" x2="269.5" y2="9.68" xlink:href="#Pecan"/><linearGradient id="Pecan-82" x1="-59.5" y1="34.45" x2="173.38" y2="34.45" xlink:href="#Pecan"/><linearGradient id="Pecan-83" x1="-86.5" y1="9.82" x2="146.5" y2="9.82" xlink:href="#Pecan"/><linearGradient id="Pecan-84" x1="353.5" y1="471.27" x2="586.5" y2="471.27" xlink:href="#Pecan"/><linearGradient id="Pecan-85" x1="370.5" y1="507.27" x2="603.5" y2="507.27" xlink:href="#Pecan"/><linearGradient id="Pecan-86" x1="375.08" y1="570.26" x2="479.5" y2="570.26" xlink:href="#Pecan"/><linearGradient id="Pecan-87" x1="374.08" y1="621.26" x2="478.5" y2="621.26" xlink:href="#Pecan"/><linearGradient id="Pecan-88" x1="375.08" y1="670.26" x2="479.5" y2="670.26" xlink:href="#Pecan"/><linearGradient id="Pecan-89" x1="973.08" y1="373.26" x2="1077.5" y2="373.26" xlink:href="#Pecan"/><linearGradient id="Teak" x1="387.5" y1="640" x2="492.5" y2="640" gradientUnits="userSpaceOnUse"><stop offset="0" stop-color="#cca072"/><stop offset=".02" stop-color="#b88e66"/><stop offset=".05" stop-color="#9b7555"/><stop offset=".09" stop-color="#876349"/><stop offset=".12" stop-color="#7b5842"/><stop offset=".15" stop-color="#775540"/><stop offset=".25" stop-color="#9c7658"/><stop offset=".43" stop-color="#cca072"/><stop offset=".52" stop-color="#a67f59"/><stop offset=".63" stop-color="#825f42"/><stop offset=".69" stop-color="#745339"/><stop offset=".87" stop-color="#cca072"/><stop offset=".89" stop-color="#c3986c"/><stop offset=".93" stop-color="#aa845c"/><stop offset=".98" stop-color="#836443"/><stop offset="1" stop-color="#715538"/></linearGradient><linearGradient id="Zebra_Wood" x1="480.5" y1="569.1" x2="1147.5" y2="569.1" gradientUnits="userSpaceOnUse"><stop offset=".03" stop-color="#714f37"/><stop offset=".15" stop-color="#dbba9a"/><stop offset=".31" stop-color="#714f37"/><stop offset=".34" stop-color="#745239"/><stop offset=".37" stop-color="#7e5c43"/><stop offset=".39" stop-color="#906d52"/><stop offset=".42" stop-color="#a88668"/><stop offset=".44" stop-color="#c8a584"/><stop offset=".46" stop-color="#dcb996"/><stop offset=".48" stop-color="#c7a483"/><stop offset=".52" stop-color="#aa886a"/><stop offset=".56" stop-color="#967458"/><stop offset=".61" stop-color="#8a684d"/><stop offset=".65" stop-color="#86644a"/><stop offset=".76" stop-color="#dbba9a"/><stop offset=".77" stop-color="#c4a385"/><stop offset=".78" stop-color="#a68468"/><stop offset=".79" stop-color="#8e6d52"/><stop offset=".81" stop-color="#7e5c43"/><stop offset=".82" stop-color="#745239"/><stop offset=".84" stop-color="#714f37"/><stop offset=".92" stop-color="#dbba9a"/><stop offset="1" stop-color="#714f37"/></linearGradient></defs><polygon class="cls-98" points="487 676 1344 439 1919.5 708.35 1919.5 1079.5 -.5 1079.5 -.5 802.58 487 676"/><ellipse class="cls-95" cx="1505.13" cy="887.03" rx="77.37" ry="34.47"/><polygon class="cls-2" points="1346.92 0 1344.5 439.5 1920 708.85 1920 0 1346.92 0"/><polygon class="cls-108" points="0 0 0 803.08 1344.5 439.5 1346.92 0 0 0"/><polygon class="cls-97" points="1443.5 376.5 1443.5 0 1920 0 1920.5 580.5 1443.5 376.5"/><polygon class="cls-1" points="1520 354.42 1443.5 376.5 1920.5 580.5 1917.5 511.5 1520 354.42"/><polygon class="cls-3" points="1520 354.42 1520 0 1443.5 0 1443.5 376.5 1520 354.42"/><polygon class="cls-96" points="1493.5 748.91 1493.5 885.69 1517.5 887.5 1517.5 739.5 1493.5 748.91"/><ellipse class="cls-99" cx="1505.5" cy="687" rx="176" ry="64.5"/><polygon class="cls-104" points="1343.5 75.5 1020.5 165.5 1018.5 116.5 1344.5 28.5 1343.5 75.5"/><polygon class="cls-6" points="1343.79 123.12 1112.5 188.5 1111.5 140.5 1344.5 76.12 1343.79 123.12"/><polygon class="cls-5" points="1110.39 187.12 787.39 277.12 785.39 228.12 1111.39 140.12 1110.39 187.12"/><polygon class="cls-10" points="1017.79 165.43 786.5 230.81 785.5 182.81 1018.5 118.43 1017.79 165.43"/><polygon class="cls-9" points="1345.79 167.43 1193.99 209.68 1192.99 161.68 1346.5 120.43 1345.79 167.43"/><polygon class="cls-11" points="1192.79 212.43 961.5 277.81 960.5 229.81 1193.5 165.43 1192.79 212.43"/><polygon class="cls-12" points="959.79 276.99 857.08 303.57 856.08 255.57 960.5 229.99 959.79 276.99"/><path class="cls-8" d="m1328.48-13.76l-86.41,21.16,1,48,102.71-26.57.65-42.61c-5.98-.03-11.97-.02-17.95.02Z"/><polygon class="cls-7" points="1240.79 55.43 1009.5 120.81 1008.5 72.81 1241.5 8.43 1240.79 55.43"/><polygon class="cls-75" points="1008.79 120.99 856.99 163.24 855.99 115.24 1009.5 73.99 1008.79 120.99"/><polygon class="cls-76" points="855.79 165.99 703.99 208.24 702.99 160.24 856.5 118.99 855.79 165.99"/><path class="cls-77" d="m1211.5-21.63c15.51-.01,31.01-.3,46.51-.67l.04-2.01c-11.83.2-23.65.44-35.48.58-14.27,1.81-28.58,3.53-42.92,5.1l-247.27,66.75,2,49L1257.39,7.12l.41-19.41c-15.43.36-30.86.65-46.3.67-6.45,0-6.43-9.99,0-10Z"/><polygon class="cls-79" points="931.39 97.12 608.39 187.12 606.39 138.12 932.39 50.12 931.39 97.12"/><polygon class="cls-78" points="784.79 231.37 682.08 257.94 681.08 209.94 785.5 184.37 784.79 231.37"/><path class="cls-85" d="m1009.86-12.63c-3.49-.23-5.61-3.7-4.76-6.57-4.67.06-9.35.13-14.02.23l1,47.91,102.71-26.57.22-14.28c-28.38,1.21-56.78,1.18-85.14-.71Z"/><polygon class="cls-86" points="1345.79 218.37 1243.08 244.94 1242.08 196.94 1346.5 171.37 1345.79 218.37"/><polygon class="cls-91" points="1241 245.66 918 335.66 916 286.66 1242 198.66 1241 245.66"/><polygon class="cls-92" points="855 300.66 532 390.66 530 341.66 856 253.66 855 300.66"/><path class="cls-93" d="m916.79,342.91l-152.29,30.59-.94-53.96c-.04-1.75-3.06,3.47-.06-.04l154-29-.71,52.41Z"/><polygon class="cls-39" points="1343.79 264.96 1112.5 330.35 1111.5 282.35 1344.5 217.96 1343.79 264.96"/><polygon class="cls-53" points="1110 326.66 787 416.66 785 367.66 1111 279.66 1110 326.66"/><polygon class="cls-54" points="993.79 28.96 762.5 94.35 761.5 46.35 994.5 -18.04 993.79 28.96"/><polygon class="cls-38" points="762.29 370.17 531.5 440 530.5 388.73 763 319.96 762.29 370.17"/><polygon class="cls-37" points="1343.79 310.96 1077.53 379.65 1076.53 331.65 1344.5 263.96 1343.79 310.96"/><polygon class="cls-72" points="1345.79 356.54 1193.99 398.79 1192.99 350.79 1346.5 309.54 1345.79 356.54"/><polygon class="cls-45" points="1195.79 392.54 1043.99 434.79 1042.99 386.79 1196.5 345.54 1195.79 392.54"/><polygon class="cls-44" points="1343.79 395.98 1112.5 461.36 1111.5 413.36 1344.5 348.98 1343.79 395.98"/><polygon class="cls-43" points="1343.79 440.98 1112.5 506.36 1111.5 458.36 1344.5 393.98 1343.79 440.98"/><polygon class="cls-35" points="789.79 407.86 558.5 473.24 557.5 425.24 790.5 360.86 789.79 407.86"/><polygon class="cls-22" points="707.79 208.86 476.5 274.24 475.5 226.24 708.5 161.86 707.79 208.86"/><polygon class="cls-23" points="762.79 96.86 531.5 162.24 530.5 114.24 763.5 49.86 762.79 96.86"/><polygon class="cls-24" points="529.79 435.26 427.08 461.83 426.08 413.83 530.5 388.26 529.79 435.26"/><path class="cls-25" d="m607.5,194.5l-104,26-.16-58.51,103.12-24.01c1.05-.24,2.05.56,2.04,1.64l-1,54.88Z"/><path class="cls-41" d="m906.74-15.78c-26.82,1.32-53.63,2.74-80.46,3.78l.8,38.28L929.79-.29l.25-16.58c-7.77.35-15.53.72-23.3,1.1Z"/><path class="cls-42" d="m831.03-12.18l-103.96,25.46,1,48,102.71-26.57.71-46.9c-.16,0-.31.01-.47.02Z"/><polygon class="cls-32" points="788.79 270.31 557.5 335.69 556.5 287.69 789.5 223.31 788.79 270.31"/><polygon class="cls-29" points="425.79 464.31 194.5 529.69 193.5 481.69 426.5 417.31 425.79 464.31"/><polygon class="cls-34" points="528.79 389.31 297.5 454.69 296.5 406.69 529.5 342.31 528.79 389.31"/><polygon class="cls-33" points="296.79 460.71 194.08 487.28 193.08 439.28 297.5 413.71 296.79 460.71"/><polygon class="cls-26" points="556.79 336.37 454.08 362.95 453.08 314.95 557.5 289.37 556.79 336.37"/><polygon class="cls-27" points="686.79 255.54 534.99 297.79 533.99 249.79 687.5 208.54 686.79 255.54"/><polygon class="cls-28" points="369.79 520.97 138.5 586.35 137.5 538.35 370.5 473.97 369.79 520.97"/><path class="cls-31" d="m-14.29,581.91c-.38,15.95-.45,31.91-.34,47.86l151.41-42.8.71-47-151.79,41.94Z"/><polygon class="cls-62" points="538.79 293.97 307.5 359.35 306.5 311.35 539.5 246.97 538.79 293.97"/><polygon class="cls-60" points="503.79 220.97 272.5 286.35 271.5 238.35 504.5 173.97 503.79 220.97"/><polygon class="cls-68" points="532.12 165.9 209.12 255.9 207.12 206.9 533.12 118.9 532.12 165.9"/><polygon class="cls-48" points="477.12 268.9 154.12 358.9 152.12 309.9 478.12 221.9 477.12 268.9"/><polygon class="cls-63" points="726.79 63.66 574.99 105.91 573.99 57.91 727.5 16.66 726.79 63.66"/><polygon class="cls-64" points="573.79 108.66 421.99 150.91 420.99 102.91 574.5 61.66 573.79 108.66"/><polygon class="cls-65" points="457.79 364.46 226.5 429.84 225.5 381.84 458.5 317.46 457.79 364.46"/><polygon class="cls-58" points="314.19 356.66 -8.81 446.66 -10.81 397.66 315.19 309.66 314.19 356.66"/><path class="cls-59" d="m-11.31,539.65c-.46,7.14-1.19,14.24-2.27,21.3-.14,3.11-.26,6.22-.37,9.33-.21,6.12-.36,12.24-.48,18.35l207.22-58.58.71-47-204.81,56.59Z"/><path class="cls-61" d="m706.68-9.36c-16.86.39-33.75.7-50.62.56l-121.56,33.59,1,48L766.79,7.41l.27-17.83c-20.13.34-40.26.59-60.38,1.06Z"/><polygon class="cls-70" points="532.66 73.1 209.66 163.1 207.66 114.1 533.66 26.1 532.66 73.1"/><polygon class="cls-71" points="270.79 277.63 168.08 304.21 167.08 256.21 271.5 230.63 270.79 277.63"/><polygon class="cls-30" points="191.79 485.08 39.99 527.33 38.99 479.33 192.5 438.08 191.79 485.08"/><path class="cls-36" d="m606.9-10.82c-31.39-2.53-62.64-5.85-94.15-6.28l-49.76,13.37,1,48L615.79,2.02l.18-12.19c-3.02-.19-6.05-.4-9.07-.65Z"/><polygon class="cls-73" points="231.79 429.15 .5 494.53 -.5 446.53 232.5 382.15 231.79 429.15"/><polygon class="cls-74" points="372.79 564.71 220.99 606.96 219.99 558.96 373.5 517.71 372.79 564.71"/><polygon class="cls-69" points="381.23 609 58.23 699 56.23 650 382.23 562 381.23 609"/><polygon class="cls-67" points="374.79 653.75 272.08 680.32 271.08 632.32 375.5 606.75 374.79 653.75"/><path class="cls-66" d="m-14.66,624.72c.07,16.19.34,32.39.64,48.58l232.56-64.8,1-47-234.19,63.22Z"/><polygon class="cls-18" points="379.5 708.5 58.54 789.51 56.54 740.51 382.54 652.51 379.5 708.5"/><polygon class="cls-17" points="269.79 682.38 117.99 724.63 116.99 676.63 270.5 635.38 269.79 682.38"/><path class="cls-46" d="m-13.35,713.42c.19,16.01.28,32.03.31,48.04l136.83-38.08.71-47-137.85,37.04Z"/><path class="cls-57" d="m-14.09,669.46c.15,8.41.31,16.83.46,25.24.14,7.49.23,14.97.32,22.46l77.1-19.95.71-47-78.59,19.25Z"/><path class="cls-55" d="m-13.04,758.21c.04,15.96.03,31.92.02,47.88l76.81-19.87.71-47-77.54,18.99Z"/><path class="cls-56" d="m-15.05,311.28c-.37,15.03-.7,30.06-.88,45.09-.01,1.04-.01,2.08-.02,3.12l181.74-51.38.71-47L-15.05,311.28Z"/><path class="cls-40" d="m-15.89,353.56c-.01.94-.03,1.87-.04,2.81-.18,15.07-.11,30.09.2,45.11l181.52-51.31.71-47L-15.89,353.56Z"/><path class="cls-90" d="m-11.34,493.38c.05.97.09,1.93.13,2.9,1.64.61,2.81,2.08,2.52,4.43-.74,6.03-1.4,12.07-1.98,18.12,0,7.39-.21,14.76-.72,22.11l52.18-13.5.71-47-52.84,12.94Z"/><polygon class="cls-89" points="208.79 249.64 56.99 291.89 55.99 243.89 209.5 202.64 208.79 249.64"/><path class="cls-94" d="m-13.82,262.12c-.37,16.07-.81,32.14-1.21,48.21l78.82-20.39.71-47-78.32,19.18Z"/><polygon class="cls-87" points="425.49 150.24 102.49 240.24 100.49 191.24 426.49 103.24 425.49 150.24"/><polygon class="cls-88" points="468.49 43.24 145.49 133.24 143.49 84.24 469.49 -3.76 468.49 43.24"/><path class="cls-49" d="m408.4-17.39c-28.05.98-55.93,3.79-83.92,5.29l-31.49,8.46,1,48L445.79,2.11l.31-20.21c-12.58.07-25.14.27-37.69.71Z"/><path class="cls-51" d="m-13.13,223.25c-.05,4.64-.11,9.28-.19,13.91-.18,11.43-.44,22.86-.72,34.29l119.82-33.35.71-47L-13.13,223.25Z"/><path class="cls-50" d="m-12.82,175.91c-.05,16.12-.13,32.23-.32,48.35l228.93-64.71.71-47L-12.82,175.91Z"/><path class="cls-47" d="m-12.63,128.24c-.11,15.95-.14,31.91-.2,47.86l157.61-44.55.71-47L-12.63,128.24Z"/><polygon class="cls-52" points="296.79 40.54 65.5 105.92 64.5 57.92 297.5 -6.46 296.79 40.54"/><path class="cls-81" d="m-12.18,79.25c-.12,12.6-.24,25.2-.36,37.81-.03,3.39-.05,6.79-.08,10.18l76.41-19.77.71-47L-12.18,79.25Z"/><path class="cls-84" d="m182.07-10.38c-5.62-.24-11.24-.51-16.87-.79l.87,41.7L268.79,3.96l.22-14.65c-28.98.65-57.94,1.58-86.94.32Z"/><path class="cls-83" d="m149.98-11.95L-11.8,32.76c-.11,16.03-.25,32.06-.4,48.09L172.79,28.56l.6-39.33c-7.8-.37-15.6-.77-23.4-1.17Z"/><path class="cls-80" d="m70.42-14.44c-27.41.2-54.67,3.72-82.03,4.87-.02,14.56-.09,29.12-.2,43.68L145.79-10.44l.03-1.72c-25.12-1.28-50.24-2.47-75.39-2.28Z"/><polygon class="cls-82" points="585.79 462.07 354.5 527.46 353.5 479.46 586.5 415.07 585.79 462.07"/><polygon class="cls-21" points="602.79 498.07 371.5 563.46 370.5 515.46 603.5 451.07 602.79 498.07"/><polygon class="cls-16" points="478.79 580.48 376.08 607.05 375.08 559.05 479.5 533.48 478.79 580.48"/><polygon class="cls-19" points="477.79 631.48 375.08 658.05 374.08 610.05 478.5 584.48 477.79 631.48"/><polygon class="cls-15" points="478.79 680.48 376.08 707.05 375.08 659.05 479.5 633.48 478.79 680.48"/><polygon class="cls-20" points="1076.79 383.48 974.08 410.05 973.08 362.05 1077.5 336.48 1076.79 383.48"/><polygon class="cls-101" points="492.5 778.5 396.62 735.85 387.5 501.5 481.5 518.5 492.5 778.5"/><polygon class="cls-107" points="491.5 778.5 1147.5 594.5 1147.5 359.69 480.5 513.5 491.5 778.5"/><polygon class="cls-99" points="388.5 499.5 1036.5 347.5 1149.5 362.5 483.5 532.5 388.5 499.5"/><polygon class="cls-106" points="547.5 723.5 814.5 651.5 818.5 490.5 544.5 554.5 547.5 723.5"/><path class="cls-110" d="m1255.97,31.41c1.93,0,1.93-3,0-3s-1.93,3,0,3h0Z"/><path class="cls-110" d="m1337.77,10.28c1.93,0,1.93-3,0-3s-1.93,3,0,3h0Z"/><path class="cls-110" d="m1328.39,60.91c1.93,0,1.93-3,0-3s-1.93,3,0,3h0Z"/><path class="cls-110" d="m1036.35,142.53c1.93,0,1.93-3,0-3s-1.93,3,0,3h0Z"/><path class="cls-110" d="m1024.37,97.6c1.93,0,1.93-3,0-3s-1.93,3,0,3h0Z"/><path class="cls-110" d="m1222.06,42.94c1.93,0,1.93-3,0-3s-1.93,3,0,3h0Z"/><path class="cls-110" d="m956.22,70.64c1.93,0,1.93-3,0-3s-1.93,3,0,3h0Z"/><path class="cls-110" d="m1007.14,8.49c1.93,0,1.93-3,0-3s-1.93,3,0,3h0Z"/><path class="cls-110" d="m970.45,15.23c1.93,0,1.93-3,0-3s-1.93,3,0,3h0Z"/><path class="cls-110" d="m1129.95,161.25c1.93,0,1.93-3,0-3s-1.93,3,0,3h0Z"/><path class="cls-110" d="m1328.39,108.09c1.93,0,1.93-3,0-3s-1.93,3,0,3h0Z"/><path class="cls-110" d="m1332.14,151.52c1.93,0,1.93-3,0-3s-1.93,3,0,3h0Z"/><path class="cls-110" d="m1213.07,182.22c1.93,0,1.93-3,0-3s-1.93,3,0,3h0Z"/><path class="cls-110" d="m1261,218.16c1.93,0,1.93-3,0-3s-1.93,3,0,3h0Z"/><path class="cls-110" d="m1335.88,200.94c1.93,0,1.93-3,0-3s-1.93,3,0,3h0Z"/><path class="cls-110" d="m1330.64,250.36c1.93,0,1.93-3,0-3s-1.93,3,0,3h0Z"/><path class="cls-110" d="m1129.95,299.79c1.93,0,1.93-3,0-3s-1.93,3,0,3h0Z"/><path class="cls-110" d="m1220.56,229.4c1.93,0,1.93-3,0-3s-1.93,3,0,3h0Z"/><path class="cls-110" d="m935.25,307.28c1.93,0,1.93-3,0-3s-1.93,3,0,3h0Z"/><path class="cls-110" d="m980.93,248.12c1.93,0,1.93-3,0-3s-1.93,3,0,3h0Z"/><path class="cls-110" d="m1166.64,197.2c1.93,0,1.93-3,0-3s-1.93,3,0,3h0Z"/><path class="cls-110" d="m1100,347.71c1.93,0,1.93-3,0-3s-1.93,3,0,3h0Z"/><path class="cls-110" d="m1328.39,293.05c1.93,0,1.93-3,0-3s-1.93,3,0,3h0Z"/><path class="cls-110" d="m1329.14,335.73c1.93,0,1.93-3,0-3s-1.93,3,0,3h0Z"/><path class="cls-110" d="m1326.9,378.42c1.93,0,1.93-3,0-3s-1.93,3,0,3h0Z"/><path class="cls-110" d="m1326.15,427.84c1.93,0,1.93-3,0-3s-1.93,3,0,3h0Z"/><path class="cls-110" d="m1211.57,367.18c1.93,0,1.93-3,0-3s-1.93,3,0,3h0Z"/><path class="cls-110" d="m1179.37,375.42c1.93,0,1.93-3,0-3s-1.93,3,0,3h0Z"/><path class="cls-110" d="m1079.78,314.02c1.93,0,1.93-3,0-3s-1.93,3,0,3h0Z"/><path class="cls-110" d="m1085.02,170.99c1.93,0,1.93-3,0-3s-1.93,3,0,3h0Z"/><path class="cls-110" d="m989.92,153.02c1.93,0,1.93-3,0-3s-1.93,3,0,3h0Z"/><path class="cls-110" d="m981.68,109.58c1.93,0,1.93-3,0-3s-1.93,3,0,3h0Z"/><path class="cls-110" d="m804.21,202.44c1.93,0,1.93-3,0-3s-1.93,3,0,3h0Z"/><path class="cls-110" d="m805.71,246.62c1.93,0,1.93-3,0-3s-1.93,3,0,3h0Z"/><path class="cls-110" d="m943.49,258.6c1.93,0,1.93-3,0-3s-1.93,3,0,3h0Z"/><path class="cls-110" d="m869.36,276.57c1.93,0,1.93-3,0-3s-1.93,3,0,3h0Z"/><path class="cls-110" d="m896.31,317.01c1.93,0,1.93-3,0-3s-1.93,3,0,3h0Z"/><path class="cls-110" d="m783.24,344.72c1.93,0,1.93-3,0-3s-1.93,3,0,3h0Z"/><path class="cls-110" d="m812.44,382.91c1.93,0,1.93-3,0-3s-1.93,3,0,3h0Z"/><path class="cls-110" d="m829.67,285.56c1.93,0,1.93-3,0-3s-1.93,3,0,3h0Z"/><path class="cls-110" d="m766.77,254.11c1.93,0,1.93-3,0-3s-1.93,3,0,3h0Z"/><path class="cls-110" d="m765.27,213.67c1.93,0,1.93-3,0-3s-1.93,3,0,3h0Z"/><path class="cls-110" d="m704.61,227.9c1.93,0,1.93-3,0-3s-1.93,3,0,3h0Z"/><path class="cls-110" d="m833.41,148.52c1.93,0,1.93-3,0-3s-1.93,3,0,3h0Z"/><path class="cls-110" d="m723.33,179.97c1.93,0,1.93-3,0-3s-1.93,3,0,3h0Z"/><path class="cls-110" d="m912.79,80.38c1.93,0,1.93-3,0-3s-1.93,3,0,3h0Z"/><path class="cls-110" d="m788.48,66.15c1.93,0,1.93-3,0-3s-1.93,3,0,3h0Z"/><path class="cls-110" d="m816.19,17.48c1.93,0,1.93-3,0-3s-1.93,3,0,3h0Z"/><path class="cls-110" d="m742.05,39.19c1.93,0,1.93-3,0-3s-1.93,3,0,3h0Z"/><path class="cls-110" d="m626.73,162c1.93,0,1.93-3,0-3s-1.93,3,0,3h0Z"/><path class="cls-110" d="m739.06,83.37c1.93,0,1.93-3,0-3s-1.93,3,0,3h0Z"/><path class="cls-110" d="m553.35,137.29c1.93,0,1.93-3,0-3s-1.93,3,0,3h0Z"/><path class="cls-110" d="m593.04,81.88c1.93,0,1.93-3,0-3s-1.93,3,0,3h0Z"/><path class="cls-110" d="m703.86,50.43c1.93,0,1.93-3,0-3s-1.93,3,0,3h0Z"/><path class="cls-110" d="m560.84,45.93c1.93,0,1.93-3,0-3s-1.93,3,0,3h0Z"/><path class="cls-110" d="m489.7,18.23c1.93,0,1.93-3,0-3s-1.93,3,0,3h0Z"/><path class="cls-110" d="m509.17,57.16c1.93,0,1.93-3,0-3s-1.93,3,0,3h0Z"/><path class="cls-110" d="m551.85,93.86c1.93,0,1.93-3,0-3s-1.93,3,0,3h0Z"/><path class="cls-110" d="m506.17,150.77c1.93,0,1.93-3,0-3s-1.93,3,0,3h0Z"/><path class="cls-110" d="m519.65,190.46c1.93,0,1.93-3,0-3s-1.93,3,0,3h0Z"/><path class="cls-110" d="m590.79,172.49c1.93,0,1.93-3,0-3s-1.93,3,0,3h0Z"/><path class="cls-110" d="m682.9,191.21c1.93,0,1.93-3,0-3s-1.93,3,0,3h0Z"/><path class="cls-110" d="m491.19,248.12c1.93,0,1.93-3,0-3s-1.93,3,0,3h0Z"/><path class="cls-110" d="m667.17,239.88c1.93,0,1.93-3,0-3s-1.93,3,0,3h0Z"/><path class="cls-110" d="m552.6,266.84c1.93,0,1.93-3,0-3s-1.93,3,0,3h0Z"/><path class="cls-110" d="m578.81,306.53c1.93,0,1.93-3,0-3s-1.93,3,0,3h0Z"/><path class="cls-110" d="m549.6,358.95c1.93,0,1.93-3,0-3s-1.93,3,0,3h0Z"/><path class="cls-110" d="m552.6,402.38c1.93,0,1.93-3,0-3s-1.93,3,0,3h0Z"/><path class="cls-110" d="m739.06,354.45c1.93,0,1.93-3,0-3s-1.93,3,0,3h0Z"/><path class="cls-110" d="m1006.77,720.39c1.93,0,1.93-3,0-3s-1.93,3,0,3h0Z"/><path class="cls-110" d="m614,433.08c1.93,0,1.93-3,0-3s-1.93,3,0,3h0Z"/><path class="cls-110" d="m559.34,446.56c1.93,0,1.93-3,0-3s-1.93,3,0,3h0Z"/><path class="cls-110" d="m370.63,498.23c1.93,0,1.93-3,0-3s-1.93,3,0,3h0Z"/><path class="cls-110" d="m442.52,441.32c1.93,0,1.93-3,0-3s-1.93,3,0,3h0Z"/><path class="cls-110" d="m510.66,418.85c1.93,0,1.93-3,0-3s-1.93,3,0,3h0Z"/><path class="cls-110" d="m511.41,372.43c1.93,0,1.93-3,0-3s-1.93,3,0,3h0Z"/><path class="cls-110" d="m536.87,322.25c1.93,0,1.93-3,0-3s-1.93,3,0,3h0Z"/><path class="cls-110" d="m479.21,338.73c1.93,0,1.93-3,0-3s-1.93,3,0,3h0Z"/><path class="cls-110" d="m519.65,277.32c1.93,0,1.93-3,0-3s-1.93,3,0,3h0Z"/><path class="cls-110" d="m332.44,331.24c1.93,0,1.93-3,0-3s-1.93,3,0,3h0Z"/><path class="cls-110" d="m436.53,346.96c1.93,0,1.93-3,0-3s-1.93,3,0,3h0Z"/><path class="cls-110" d="m312.22,426.34c1.93,0,1.93-3,0-3s-1.93,3,0,3h0Z"/><path class="cls-110" d="m399.84,448.81c1.93,0,1.93-3,0-3s-1.93,3,0,3h0Z"/><path class="cls-110" d="m453.75,255.61c1.93,0,1.93-3,0-3s-1.93,3,0,3h0Z"/><path class="cls-110" d="m477.71,207.68c1.93,0,1.93-3,0-3s-1.93,3,0,3h0Z"/><path class="cls-110" d="m447.76,124.56c1.93,0,1.93-3,0-3s-1.93,3,0,3h0Z"/><path class="cls-110" d="m293.5,251.86c1.93,0,1.93-3,0-3s-1.93,3,0,3h0Z"/><path class="cls-110" d="m234.34,138.04c1.93,0,1.93-3,0-3s-1.93,3,0,3h0Z"/><path class="cls-110" d="m439.52,30.96c1.93,0,1.93-3,0-3s-1.93,3,0,3h0Z"/><path class="cls-110" d="m318.21,18.23c1.93,0,1.93-3,0-3s-1.93,3,0,3h0Z"/><path class="cls-110" d="m166.2,105.84c1.93,0,1.93-3,0-3s-1.93,3,0,3h0Z"/><path class="cls-110" d="m273.28,26.46c1.93,0,1.93-3,0-3s-1.93,3,0,3h0Z"/><path class="cls-110" d="m87.57,81.13c1.93,0,1.93-3,0-3s-1.93,3,0,3h0Z"/><path class="cls-110" d="m148.98,15.98c1.93,0,1.93-3,0-3s-1.93,3,0,3h0Z"/><path class="cls-110" d="m188.66,144.78c1.93,0,1.93-3,0-3s-1.93,3,0,3h0Z"/><path class="cls-110" d="m125.76,212.17c1.93,0,1.93-3,0-3s-1.93,3,0,3h0Z"/><path class="cls-110" d="m399.09,135.04c1.93,0,1.93-3,0-3s-1.93,3,0,3h0Z"/><path class="cls-110" d="m236.59,223.41c1.93,0,1.93-3,0-3s-1.93,3,0,3h0Z"/><path class="cls-110" d="m256.06,262.35c1.93,0,1.93-3,0-3s-1.93,3,0,3h0Z"/><path class="cls-110" d="m185.67,278.07c1.93,0,1.93-3,0-3s-1.93,3,0,3h0Z"/><path class="cls-110" d="m184.17,325.25c1.93,0,1.93-3,0-3s-1.93,3,0,3h0Z"/><path class="cls-110" d="m287.51,342.47c1.93,0,1.93-3,0-3s-1.93,3,0,3h0Z"/><path class="cls-110" d="m249.32,403.13c1.93,0,1.93-3,0-3s-1.93,3,0,3h0Z"/><path class="cls-110" d="m274.03,443.56c1.93,0,1.93-3,0-3s-1.93,3,0,3h0Z"/><path class="cls-110" d="m208.13,460.04c1.93,0,1.93-3,0-3s-1.93,3,0,3h0Z"/><path class="cls-110" d="m209.63,498.98c1.93,0,1.93-3,0-3s-1.93,3,0,3h0Z"/><path class="cls-110" d="m330.19,510.96c1.93,0,1.93-3,0-3s-1.93,3,0,3h0Z"/><path class="cls-110" d="m163.2,558.14c1.93,0,1.93-3,0-3s-1.93,3,0,3h0Z"/><path class="cls-110" d="m353.41,548.4c1.93,0,1.93-3,0-3s-1.93,3,0,3h0Z"/><path class="cls-110" d="m243.33,579.85c1.93,0,1.93-3,0-3s-1.93,3,0,3h0Z"/><path class="cls-110" d="m169.94,471.27c1.93,0,1.93-3,0-3s-1.93,3,0,3h0Z"/><path class="cls-110" d="m59.11,501.23c1.93,0,1.93-3,0-3s-1.93,3,0,3h0Z"/><path class="cls-110" d="m23.17,510.96c1.93,0,1.93-3,0-3s-1.93,3,0,3h0Z"/><path class="cls-110" d="m16.43,469.03c1.93,0,1.93-3,0-3s-1.93,3,0,3h0Z"/><path class="cls-110" d="m209.63,412.86c1.93,0,1.93-3,0-3s-1.93,3,0,3h0Z"/><path class="cls-110" d="m14.93,417.36c1.93,0,1.93-3,0-3s-1.93,3,0,3h0Z"/><path class="cls-110" d="m141.49,334.98c1.93,0,1.93-3,0-3s-1.93,3,0,3h0Z"/><path class="cls-110" d="m143.73,289.3c1.93,0,1.93-3,0-3s-1.93,3,0,3h0Z"/><path class="cls-110" d="m82.33,263.09c1.93,0,1.93-3,0-3s-1.93,3,0,3h0Z"/><path class="cls-110" d="m184.92,236.89c1.93,0,1.93-3,0-3s-1.93,3,0,3h0Z"/><path class="cls-110" d="m84.58,221.16c1.93,0,1.93-3,0-3s-1.93,3,0,3h0Z"/><path class="cls-110" d="m43.39,277.32c1.93,0,1.93-3,0-3s-1.93,3,0,3h0Z"/><path class="cls-110" d="m14.93,193.45c1.93,0,1.93-3,0-3s-1.93,3,0,3h0Z"/><path class="cls-110" d="m121.27,119.32c1.93,0,1.93-3,0-3s-1.93,3,0,3h0Z"/><path class="cls-110" d="m53.12,87.12c1.93,0,1.93-3,0-3s-1.93,3,0,3h0Z"/><path class="cls-110" d="m14.18,367.93c1.93,0,1.93-3,0-3s-1.93,3,0,3h0Z"/><path class="cls-110" d="m172.19,514.7c1.93,0,1.93-3,0-3s-1.93,3,0,3h0Z"/><path class="cls-110" d="m120.52,572.36c1.93,0,1.93-3,0-3s-1.93,3,0,3h0Z"/><path class="cls-110" d="m12.69,604.56c1.93,0,1.93-3,0-3s-1.93,3,0,3h0Z"/><path class="cls-110" d="m195.4,594.08c1.93,0,1.93-3,0-3s-1.93,3,0,3h0Z"/><path class="cls-110" d="m45.64,680.2c1.93,0,1.93-3,0-3s-1.93,3,0,3h0Z"/><path class="cls-110" d="m106.29,707.16c1.93,0,1.93-3,0-3s-1.93,3,0,3h0Z"/><path class="cls-110" d="m14.93,730.37c1.93,0,1.93-3,0-3s-1.93,3,0,3h0Z"/><path class="cls-110" d="m42.64,770.06c1.93,0,1.93-3,0-3s-1.93,3,0,3h0Z"/><path class="cls-110" d="m85.32,762.57c1.93,0,1.93-3,0-3s-1.93,3,0,3h0Z"/><path class="cls-110" d="m351.16,694.42c1.93,0,1.93-3,0-3s-1.93,3,0,3h0Z"/><path class="cls-110" d="m359.4,636.02c1.93,0,1.93-3,0-3s-1.93,3,0,3h0Z"/><path class="cls-110" d="m297.24,656.98c1.93,0,1.93-3,0-3s-1.93,3,0,3h0Z"/><path class="cls-110" d="m354.16,595.58c1.93,0,1.93-3,0-3s-1.93,3,0,3h0Z"/><path class="cls-110" d="m86.82,665.22c1.93,0,1.93-3,0-3s-1.93,3,0,3h0Z"/><path class="cls-110" d="m253.06,665.97c1.93,0,1.93-3,0-3s-1.93,3,0,3h0Z"/><path class="cls-110" d="m146.73,694.42c1.93,0,1.93-3,0-3s-1.93,3,0,3h0Z"/><polygon class="cls-13" points="428.1 126.52 882.09 32.54 887.09 247.54 428.1 356.66 428.1 126.52"/><ellipse class="cls-105" cx="478.21" cy="137.17" rx="61.77" ry="13.62" transform="translate(-17.06 90.18) rotate(-10.59)"/><path class="cls-105" d="m514.56,96.11c5.64,7.09-9.73,39.85-35.67,44.71-25.93,4.85-52.11-20.1-49.41-28.81,1.6-5.17,12.69-2.36,43.83-8.28,29.47-5.61,38.05-11.65,41.26-7.62Z"/><path class="cls-105" d="m517.51,98.45c41.03-4.13-1.19,22.99-8.99,24.52l8.99-24.52Z"/><path class="cls-100" d="m521.1,103.06c15.85-1.61-.47,8.8-3.49,9.39l3.49-9.39Z"/><path class="cls-109" d="m467.56,51.83c1.07,2.41-.62,4.98-2.29,6.56s-3.62,3.6-3.12,6.23c.47,2.47,2.89,3.73,4.95,3.93s4.21-.16,6.13.94c2.58,1.48,3.88,5.41,3.37,8.66s-2.53,5.8-4.89,7.36-5.07,2.26-7.73,2.94c.79-2.29,2.64-3.67,4.11-5.37s2.66-4.32,1.75-6.7c-.87-2.25-3.14-3.11-5.12-3.45s-4.18-.56-5.66-2.31c-1.66-1.95-1.73-5.2-.78-7.55s2.7-4.01,4.4-5.6c1.59-1.49,3.18-2.98,4.78-4.47"/><path class="cls-111" d="m465.75,52.33c.95,4.16-4.89,6.47-5.46,10.53-.38,2.7.99,5.13,3.29,6.47,3.84,2.24,9.77-.12,11.05,5.55,1.62,7.16-5.59,10.31-11.15,11.77l2.12,2.75c2.28-4.92,10.7-10.83,3.96-16.42-2.98-2.47-7.86-1.2-9.85-5.15-2.4-4.78,6.15-10.78,9.06-13.5,1.77-1.65-.89-4.3-2.65-2.65-4.89,4.57-13.06,10.58-9.57,18.37,1.13,2.52,3.28,3.71,5.85,4.36.78.2,2.38.09,3.03.61l1.88,6-1.46,1.73c-1.4,1.59-2.59,2.82-3.49,4.76-.67,1.44.43,3.2,2.12,2.75,8.17-2.14,17.23-8.26,13.22-18.05-1.71-4.17-4.82-5.13-9.03-5.46-2.27.47-3.14-.57-2.59-3.12-1.1-1.72-.92-3.03.53-3.92.38-.78,1.69-1.86,2.12-2.67,1.03-1.97,1.12-3.6.65-5.71-.54-2.35-4.15-1.36-3.62,1h0Z"/><ellipse class="cls-105" cx="471.36" cy="102.02" rx="43.55" ry="8.1" transform="translate(-10.72 88.33) rotate(-10.59)"/><path class="cls-112" d="m534.44,179.1l-5.45,1.96c-2.54-6.89-5.72-12.19-9.54-15.9-3.82-3.7-8.03-5.06-12.65-4.08-3.38.72-6.07,2.31-8.07,4.77-1.99,2.46-3.38,5.59-4.15,9.38-.77,3.8-1,8.18-.69,13.16.31,4.98,1.08,10.35,2.31,16.11,1.35,6.35,2.98,11.78,4.88,16.29,1.9,4.51,3.99,8.14,6.26,10.88,2.27,2.75,4.69,4.65,7.24,5.69s5.19,1.28,7.91.7c5.33-1.14,9.1-4.08,11.3-8.85,2.2-4.76,3.2-11.02,2.99-18.77l5.78,1.82c.15,4.22,0,8.37-.44,12.45-.44,4.08-1.35,7.81-2.72,11.2-1.37,3.39-3.29,6.3-5.78,8.74-2.48,2.43-5.7,4.07-9.65,4.91-4.15.88-8.23.73-12.23-.45-4-1.18-7.78-3.48-11.32-6.9-3.54-3.41-6.73-7.99-9.56-13.72-2.83-5.74-5.12-12.72-6.88-20.94-1.83-8.57-2.66-16.17-2.49-22.81s1.13-12.3,2.89-16.97c1.76-4.68,4.2-8.41,7.3-11.2,3.1-2.79,6.68-4.61,10.73-5.48,4.15-.88,7.92-.61,11.31.82,3.39,1.43,6.11,3.32,8.16,5.65l.22-8.41,5.69-1.21,6.64,31.12Z"/><path class="cls-112" d="m563.77,138.31c4.1-.87,8.09-.84,11.96.1,3.87.94,7.49,3.07,10.85,6.38,3.36,3.31,6.42,7.94,9.19,13.89,2.77,5.96,5.13,13.5,7.08,22.63,1.6,7.53,2.44,14.45,2.5,20.76.06,6.31-.69,11.86-2.24,16.66-1.55,4.8-3.95,8.76-7.19,11.88-3.25,3.12-7.36,5.21-12.33,6.27-4.05.86-7.99.86-11.82,0-3.83-.86-7.41-2.88-10.74-6.07-3.33-3.18-6.37-7.62-9.11-13.31-2.74-5.69-5.05-12.94-6.92-21.73-1.68-7.87-2.62-15.07-2.84-21.61-.22-6.54.41-12.29,1.87-17.25,1.46-4.95,3.81-9.01,7.05-12.18,3.24-3.17,7.47-5.31,12.7-6.42Zm2.6,10.33c-3.18.68-5.75,2.05-7.73,4.1-1.97,2.06-3.37,4.73-4.2,8-.83,3.28-1.13,7.15-.9,11.61.23,4.47.93,9.45,2.1,14.96,1.82,8.55,3.7,15.48,5.64,20.78,1.93,5.3,3.96,9.38,6.07,12.25,2.11,2.87,4.32,4.7,6.64,5.49,2.31.79,4.75.91,7.31.37,3.38-.72,6.05-2.15,8.01-4.3,1.96-2.14,3.29-4.95,3.99-8.42.71-3.47.87-7.62.48-12.46-.39-4.83-1.23-10.3-2.53-16.39-1.68-7.88-3.46-14.27-5.34-19.18-1.88-4.91-3.85-8.7-5.92-11.36-2.07-2.66-4.24-4.36-6.52-5.12-2.28-.75-4.65-.87-7.11-.34Z"/><path class="cls-112" d="m655.4,150.66l-4.66,1.52c-3.55-12.61-8.14-18.32-13.78-17.12l-17.76,3.79,7.18,33.67,9.38-2c3.13-.67,3.77-6.47,1.92-17.41l4.69-1,7.84,42.42-4.54.97c-2.93-10.97-5.75-16.17-8.47-15.59l-8.84,1.89,6.06,28.43c.83,3.91,4.27,5.22,10.32,3.93l1.54,7.24-27.68,5.9-1.54-7.24c4.56-.97,6.43-3.41,5.6-7.31l-14.49-67.95c-.83-3.9-3.53-5.37-8.09-4.4l-1.6-7.5,50.83-10.84,6.09,28.58Z"/><path class="cls-112" d="m711.84,138.62l-4.66,1.52c-3.55-12.61-8.14-18.32-13.78-17.12l-17.76,3.79,7.18,33.67,9.38-2c3.13-.67,3.77-6.47,1.92-17.41l4.69-1,7.84,42.42-4.54.97c-2.93-10.97-5.75-16.17-8.47-15.59l-8.84,1.89,6.06,28.43c.83,3.91,4.27,5.22,10.32,3.93l1.54,7.24-27.68,5.9-1.54-7.24c4.56-.97,6.43-3.41,5.6-7.31l-14.49-67.95c-.83-3.9-3.53-5.37-8.09-4.4l-1.6-7.5,50.83-10.84,6.09,28.58Z"/><path class="cls-112" d="m768.52,126.54l-5.27,1.66c-3.34-12.66-7.99-18.35-13.93-17.08l-17.22,3.67,6.55,30.74,8.77-1.87c3.08-.66,3.75-6.16,2.03-16.5l4.84-1.03,7.3,39.88-4.69,1c-2.75-10.39-5.49-15.3-8.2-14.72l-8.23,1.75,7.53,35.32,14.46-3.08c8.61-1.84,11.45-11.92,8.51-30.24l5.73-.29,5.87,36.6-51.06,10.89-1.54-7.24c4.56-.97,6.43-3.41,5.6-7.31l-14.49-67.95c-.83-3.9-3.53-5.37-8.09-4.4l-1.6-7.5,51.06-10.89,6.09,28.58Z"/><path class="cls-112" d="m827.8,113.9l-5.27,1.66c-3.34-12.65-7.99-18.35-13.93-17.08l-17.23,3.67,6.55,30.74,8.77-1.87c3.08-.66,3.75-6.16,2.03-16.5l4.84-1.03,7.3,39.88-4.69,1c-2.75-10.39-5.49-15.3-8.2-14.72l-8.23,1.75,7.53,35.32,14.46-3.08c8.61-1.84,11.45-11.92,8.51-30.24l5.73-.29,5.87,36.6-51.06,10.89-1.54-7.24c4.56-.97,6.43-3.41,5.6-7.31l-14.49-67.95c-.83-3.9-3.53-5.37-8.09-4.4l-1.6-7.5,51.06-10.89,6.09,28.58Z"/><path class="cls-119" d="m599.34,279.56l10.08,14.07-4.96,3.83-27.66-38.59,9.44-7.28c3.88-2.99,7.02-4.73,9.43-5.23,2.41-.49,4.7-.25,6.88.74,2.17.99,4.01,2.53,5.52,4.63,1.77,2.47,2.79,5.27,3.05,8.38.26,3.12-.33,6.13-1.78,9.04-1.44,2.91-4.11,5.87-8,8.87l-2,1.54Zm-2.77-3.86l2.12-1.64c3.05-2.35,5.02-4.51,5.92-6.45.9-1.95,1.21-3.99.93-6.11-.28-2.12-1.05-4.06-2.31-5.83-1.59-2.22-3.56-3.42-5.92-3.61-2.36-.19-5.63,1.33-9.83,4.57l-2.95,2.28,12.03,16.78Z"/><path class="cls-120" d="m641.31,279.18l.92,4.24-18.39,3.87-8.33-38.59,4.43-.93,7.42,34.34,13.96-2.94Z"/><path class="cls-120" d="m659.21,269.31l.93,4.32-16.07,3.38-8.48-39.29,15.77-3.32.85,3.95-11.9,2.51,2.88,13.33,10.7-2.25.85,3.93-10.7,2.25,2.97,13.75,12.2-2.57Z"/><path class="cls-120" d="m667.69,278.06l-5.52,1.16,5.27-41.45,5.83-1.23,22.02,35.71-6.05,1.27-4.86-7.85-15.54,3.27-1.14,9.12Zm1.69-13.26l12.88-2.71-8.49-13.53-2.09-3.62-.27,4.11-2.03,15.74Z"/><path class="cls-120" d="m696.63,264.38l-.88-4.09c4.06.85,7.6.96,10.62.33,1.26-.27,2.43-.75,3.49-1.44s1.8-1.52,2.21-2.49c.41-.97.51-1.95.3-2.94-.25-1.16-.9-2.16-1.93-3-1.04-.84-2.81-1.63-5.32-2.38l-2.64-.76-2.67-.77c-4.7-1.42-7.42-3.84-8.15-7.27-.54-2.51-.06-4.83,1.45-6.93,1.51-2.11,4.25-3.58,8.23-4.42,2.56-.54,5.11-.71,7.65-.52l.8,3.71c-2.84-.4-5.51-.33-8.01.2-1.99.42-3.49,1.25-4.52,2.48s-1.39,2.54-1.09,3.91c.3,1.37,1.02,2.4,2.16,3.11,1.14.7,2.53,1.28,4.15,1.72l2.02.62,2.51.81,2.14.62c4.41,1.41,6.98,3.8,7.71,7.18.56,2.59.02,5.01-1.6,7.28-1.63,2.27-4.67,3.88-9.12,4.81-1.42.3-2.79.47-4.14.52s-3.14-.05-5.38-.31Z"/><path class="cls-120" d="m747.78,254.71l.98,4.53-25.29,5.32-8.89-41.17,24.82-5.22.89,4.14-18.73,3.94,3.02,13.97,16.84-3.54.89,4.12-16.84,3.54,3.11,14.42,19.2-4.04Z"/><polygon class="cls-123" points="1523 244.94 1570.51 257.1 1570.51 199.44 1632.25 209.68 1626.86 393.98 1523 354.42 1523 244.94"/><polygon class="cls-123" points="1625.4 228.12 1674.21 245.25 1674.21 164 1737.65 178.42 1732.11 438.14 1626 394 1625.4 228.12"/><polygon class="cls-123" points="1732.11 438.14 1737.65 132.31 1783.55 221.15 1817.37 229.99 1811.74 352.95 1855.43 365.68 1855.43 486.97 1732.11 438.14"/><polygon class="cls-123" points="1855.43 486.97 1855.43 305.79 1919.5 326.16 1917.5 511.5 1855.43 486.97"/><polygon class="cls-124" points="1798 233 1797.61 195.7 1844.83 209.68 1844.83 252.54 1868.44 252.54 1867.22 309.54 1855.43 305.79 1855.43 365.68 1811.74 352.95 1817.37 229.99 1798 233"/><polygon class="cls-124" points="1589.43 202.77 1589.43 151.52 1646.56 159.75 1646.56 235.55 1632.25 230.52 1632.25 209.68 1589.43 202.77"/><path class="cls-121" d="m628.93,586.83l-8.06-21.08,2.81,23.55c.16,1.3-.02,2.32-.52,3.04s-1.24,1.14-2.2,1.25c-.93.11-1.73-.12-2.4-.69-.67-.57-1.08-1.52-1.24-2.84l-3.22-27c-.18-1.49.09-2.54.8-3.15s1.73-1,3.05-1.16l2.14-.25c1.29-.15,2.24-.15,2.85.01.61.16,1.09.53,1.44,1.1.35.57.79,1.52,1.31,2.84l7.19,18.1,2.73-19.28c.19-1.41.39-2.43.6-3.07.21-.64.59-1.11,1.14-1.41.55-.3,1.48-.53,2.76-.68l2.14-.26c1.32-.16,2.4-.02,3.23.41.84.43,1.35,1.39,1.52,2.88l3.22,27c.16,1.3-.02,2.32-.52,3.04s-1.25,1.14-2.22,1.26c-.92.11-1.71-.13-2.37-.71-.67-.58-1.08-1.52-1.23-2.83l-2.81-23.55-2.88,22.39c-.19,1.45-.36,2.52-.5,3.21-.15.69-.49,1.34-1.03,1.95s-1.35.99-2.42,1.11c-.81.1-1.51,0-2.11-.28-.6-.28-1.09-.68-1.46-1.18-.38-.51-.69-1.08-.95-1.72-.26-.64-.52-1.3-.79-1.99Z"/><path class="cls-121" d="m675.09,552.93l-15.57,1.86,1,8.38,14.34-1.71c1.05-.13,1.87.02,2.45.43s.91,1,1,1.78c.09.78-.09,1.44-.54,1.99s-1.22.89-2.29,1.02l-14.34,1.71,1.16,9.7,16.1-1.92c1.09-.13,1.93.02,2.55.46.61.44.97,1.08,1.07,1.92.1.81-.1,1.5-.59,2.06-.49.57-1.28.92-2.36,1.05l-18.78,2.24c-1.5.18-2.63-.02-3.37-.61-.74-.59-1.2-1.63-1.38-3.12l-3.06-25.65c-.12-.99-.07-1.82.15-2.49.22-.66.63-1.18,1.22-1.54s1.38-.6,2.36-.72l18.25-2.18c1.1-.13,1.95.02,2.54.44s.94,1.03,1.03,1.82c.1.81-.09,1.49-.57,2.04-.48.55-1.27.89-2.37,1.03Z"/><path class="cls-121" d="m693.36,552.29l15.69,18.52-2.42-20.29c-.16-1.32,0-2.34.5-3.07.49-.73,1.21-1.15,2.17-1.26.99-.12,1.82.12,2.47.71.65.59,1.06,1.55,1.22,2.86l3.2,26.83c.36,3-.71,4.64-3.19,4.94-.62.07-1.19.05-1.71-.07-.52-.12-1.02-.35-1.5-.68-.48-.33-.94-.74-1.37-1.22s-.87-.96-1.31-1.46l-15.34-18.33,2.39,19.99c.16,1.3-.03,2.32-.55,3.06-.53.74-1.26,1.17-2.21,1.28-.98.12-1.8-.13-2.47-.73-.67-.61-1.08-1.55-1.24-2.84l-3.14-26.32c-.13-1.12-.11-2.01.06-2.67.21-.73.63-1.36,1.26-1.89.63-.52,1.34-.83,2.13-.93.62-.07,1.17-.04,1.63.11.47.15.89.38,1.26.68.37.3.77.7,1.18,1.2.41.5.84,1.02,1.29,1.57Z"/><path class="cls-121" d="m718.51,555.68l-4.36-15.94c-.37-1.36-.34-2.46.08-3.3.42-.84,1.13-1.4,2.13-1.68,1.04-.29,1.96-.17,2.75.34.8.51,1.38,1.45,1.75,2.8l4.46,16.3c.51,1.85,1.14,3.34,1.89,4.47.75,1.13,1.75,1.89,3,2.29,1.24.4,2.81.34,4.71-.18,2.62-.72,4.29-1.92,4.99-3.61.7-1.69.67-3.95-.11-6.79l-4.5-16.43c-.38-1.37-.35-2.48.07-3.31.42-.84,1.13-1.39,2.14-1.67s1.92-.17,2.73.33c.81.5,1.4,1.44,1.78,2.81l4.36,15.94c.71,2.59,1.05,4.82,1.02,6.7s-.57,3.65-1.61,5.35c-.9,1.45-2.08,2.64-3.54,3.59-1.46.95-3.26,1.72-5.4,2.3-2.55.7-4.82,1.02-6.8.98s-3.72-.49-5.2-1.32c-1.48-.84-2.73-2.08-3.77-3.73s-1.9-3.73-2.58-6.23Z"/><path class="cls-110" d="m570.26,618.65c2.59-1.43,4.44-3.78,5.29-6.6h-2.89c.43,2.61,2.15,4.89,4.52,6.06.54.27,1.39.3,1.82-.23,2.31-2.9,4.62-5.8,6.93-8.7l-2.51-1.46c-1.01,2.83.39,6.24,3.17,7.45s6.21-.08,7.62-2.74h-2.59c1.28,2.84,4.08,4.77,7.17,5.04s6.35-1.52,8.02-4.24l-2.36.3c3.78,3.19,8.81,2.35,13.23,1.16,5.85-1.59,11.69-3.22,17.53-4.84,1.86-.51,1.07-3.41-.8-2.89-5.24,1.44-10.47,2.89-15.71,4.33-3.62,1-8.84,2.9-12.13.12-.74-.63-1.82-.57-2.36.3-2.48,4.03-8.13,3.38-10.01-.8-.46-1.03-2.1-.93-2.59,0-.71,1.34-2.4,2.18-3.87,1.5s-1.95-2.46-1.44-3.9c.49-1.37-1.58-2.63-2.51-1.46-2.31,2.9-4.62,5.8-6.93,8.7l1.82-.23c-1.76-.87-2.82-2.34-3.14-4.27-.25-1.54-2.5-1.31-2.89,0-.63,2.1-2,3.75-3.91,4.81-1.69.93-.18,3.53,1.51,2.59h0Z"/><path class="cls-110" d="m572.59,632.19l4.38-4.04-2.51-.66c.94,3.51,3.48,7.16,7.38,7.56,3.37.35,7.18-2.3,6.91-5.94l-2.56,1.06c.95.92,1.9,1.83,2.84,2.75,1.39,1.34,3.51-.78,2.12-2.12-.95-.92-1.9-1.83-2.84-2.75-.88-.85-2.66-.29-2.56,1.06.15,2.01-2.16,3.32-3.98,2.91-2.44-.55-3.83-3.11-4.42-5.33-.3-1.12-1.69-1.42-2.51-.66l-4.38,4.04c-1.42,1.31.7,3.43,2.12,2.12h0Z"/><path class="cls-110" d="m599.11,629.05l3.87-5.33-2.8-.76c-.26,2.55,1.46,5.11,3.94,5.81s5.29-.68,6.36-3l-2.8-.76c-.31,3.38,3.14,5.26,6.1,5.15,3.33-.12,7.06-1.03,10.07-2.43,5.56-2.59,9.24-7.91,12.58-12.83l-2.8-.76c-.41,3.17,1.71,6.22,4.6,7.38,1.59.64,3.2.53,4.82.04.59-.18,3.92-1.48,4.02.03.08,1.18,1.66,2.13,2.56,1.06.74-.88,1.49-1.77,2.23-2.65l-2.51-.66c.79,2.88,5.19,3.49,6.55.72.85-1.73-1.74-3.25-2.59-1.51-.13.26-.9.59-1.07,0-.28-1.02-1.76-1.55-2.51-.66s-1.49,1.77-2.23,2.65l2.56,1.06c-.1-1.52-.95-2.66-2.35-3.27-1.7-.74-3.36-.33-5.06.21s-3.03.69-4.44-.43c-1.24-.99-1.81-2.41-1.61-3.97s-2.06-1.84-2.8-.76c-2.66,3.9-5.46,8.05-9.5,10.64-2.18,1.39-4.57,2.08-7.09,2.58-1.69.34-6.87,1.61-6.57-1.6.13-1.45-2.18-2.09-2.8-.76-1.27,2.76-5.02,1.73-4.71-1.29.17-1.64-2.03-1.82-2.8-.76l-3.87,5.33c-1.14,1.56,1.47,3.06,2.59,1.51h0Z"/><path class="cls-110" d="m565.77,649.35l4.05-.43-1.06-.44c2.37,2.28,5,4.7,8.4,5.13,2.79.35,5.78-.7,7.19-3.26l-2.74-.36c.33,1.22.66,2.43,1,3.65.31,1.14,1.68,1.4,2.51.66,2.42-2.14,4.83-4.28,7.25-6.41h-2.12c.84.99,1.67,1.99,2.51,2.98.49.59,1.63.58,2.12,0,2.56-3.02,5.13-6.04,7.69-9.06l-2.51-.66c1.25,3.47,5.5,3.66,8.32,2.05,1.62-.93,2.95-2.42,4.7-3.14.72-.3,3.45-.34,3.2,1.06-.22,1.25.99,2.39,2.2,1.69,1.59-.91,3.18-1.82,4.78-2.72l-2.05-.54c.99,1.86,1.99,3.72,2.98,5.57.45.85,1.7.98,2.36.3.94-.97,1.88-1.94,2.81-2.91h-2.12c1.33,1.41,2.66,2.81,3.99,4.22.59.63,1.51.51,2.12,0,2.78-2.31,5.56-4.62,8.35-6.92h-2.12l2.1,2.34c.54.6,1.58.56,2.12,0,4.47-4.56,8.94-9.13,13.41-13.69l-2.36-.3c.93,1.53,1.86,3.06,2.79,4.59.51.84,1.65.97,2.36.3.78-.73,1.55-1.46,2.33-2.19h-2.12c.94.95,1.88,1.91,2.82,2.86,1.36,1.38,3.48-.75,2.12-2.12-.94-.95-1.88-1.91-2.82-2.86-.58-.59-1.53-.55-2.12,0-.78.73-1.55,1.46-2.33,2.19l2.36.3c-.93-1.53-1.86-3.06-2.79-4.59-.5-.82-1.67-1-2.36-.3-4.47,4.56-8.94,9.13-13.41,13.69h2.12l-2.1-2.34c-.58-.64-1.53-.49-2.12,0-2.78,2.31-5.56,4.62-8.35,6.92h2.12c-1.33-1.41-2.66-2.81-3.99-4.22-.55-.58-1.57-.57-2.12,0-.94.97-1.88,1.94-2.81,2.91l2.36.3c-.99-1.86-1.99-3.72-2.98-5.57-.38-.72-1.37-.93-2.05-.54-1.59.91-3.18,1.82-4.78,2.72l2.2,1.69c.7-4.03-4-5.96-7.24-4.61-1.89.79-3.31,2.28-5.07,3.29-.93.54-3.39,1.19-3.91-.26-.35-.97-1.72-1.59-2.51-.66-2.56,3.02-5.13,6.04-7.69,9.06h2.12c-.84-.99-1.67-1.99-2.51-2.98-.54-.65-1.56-.5-2.12,0-2.42,2.14-4.83,4.28-7.25,6.41l2.51.66c-.33-1.22-.66-2.43-1-3.65s-2.11-1.5-2.74-.36c-1.44,2.6-4.9,2.02-7.03.73-1.46-.89-2.5-2.2-3.84-3.21-1.23-.92-3.66-.16-5.11,0-1.9.2-1.92,3.2,0,3h0Z"/><path class="cls-110" d="m570.13,665.87l2.19-1.88-2.36-.3c2.75,3.92,7.02,6.4,11.79,6.87.81.08,1.5-.75,1.5-1.5,0-.88-.69-1.42-1.5-1.5-3.6-.35-7.1-2.39-9.2-5.38-.58-.83-1.58-.97-2.36-.3l-2.19,1.88c-.62.53-.54,1.58,0,2.12.61.61,1.5.53,2.12,0h0Z"/><path class="cls-110" d="m600.19,668.38c1.93,0,1.93-3,0-3s-1.93,3,0,3h0Z"/><path class="cls-110" d="m599.49,666.95c-1.35,1.09-.91,3.03.24,4.07,1.44,1.3,3.41.74,4.66-.52,1.53-1.55,2.5-3.81,3.6-5.65,1.27-2.14,2.53-4.27,3.8-6.41,1-1.68-1.52-3.1-2.59-1.51-1.59,2.35-.76,5.87,1.8,7.16,2.69,1.36,5.82-.24,6.86-2.89l-2.2.9c2.99,2.13,7.32-.33,7.45-3.84h-3c.06,2.91,2.91,4.68,5.63,4.42,3.31-.31,5.26-3.41,6.7-6.05.93-1.69-1.66-3.21-2.59-1.51-.88,1.6-1.89,3.68-3.69,4.41-1.01.41-3.02.1-3.05-1.27-.04-1.93-2.93-1.93-3,0-.06,1.42-1.9,2-2.94,1.25-.86-.62-1.88.08-2.2.9-.39.98-1.81,1.51-2.72.96-1.03-.62-1.06-2.01-.45-2.91l-2.59-1.51c-1.44,2.42-2.87,4.84-4.31,7.26-.65,1.1-1.28,2.22-1.96,3.3-.3.47-.66.8-1.03,1.19-.04.04-.22.13-.18.08-.04-.02-.06-.04-.07-.07-.07-.13-.08,0-.03.38,1.5-1.21-.63-3.32-2.12-2.12h0Z"/><path class="cls-110" d="m719.03,597.48c4.41-.88,7.57-4.6,8.16-8.97l-2.95.4c1.23,2.94,4.43,4.01,7.39,3.17,1.72-.49,3.22-1.48,4.7-2.45,1.75-1.15,3.48-2.31,5.22-3.48,3.36-2.26,6.71-4.55,10.08-6.8,3.14-2.1,6.4-4.17,10.08-5.18s7.68-.81,10.88,1.4c.55.38,1.36.2,1.82-.23,1.24-1.18,2.48-2.35,3.72-3.53l-2.56-1.06c-.23,3.03,1.51,5.89,4.05,7.45,1.25.77,2.75,1.23,4.23,1.2,1.94-.05,3.07-1.39,4.49-2.56s-.64-3.34-2.12-2.12c-.79.65-1.65,1.72-2.54,1.68-.98-.05-1.87-.33-2.69-.88-1.62-1.07-2.57-2.83-2.43-4.77.1-1.36-1.68-1.9-2.56-1.06-1.24,1.18-2.48,2.35-3.72,3.53l1.82-.23c-7.77-5.38-17.14-.8-23.98,3.78-4.1,2.74-8.18,5.54-12.28,8.28-1.93,1.29-3.86,2.82-5.98,3.78-1.32.6-3.96,1.09-4.72-.7-.67-1.6-2.72-1.32-2.95.4-.41,3.09-2.98,5.49-5.96,6.08-1.89.38-1.09,3.27.8,2.89h0Z"/><path class="cls-110" d="m728.99,604.98l2.87-2.36-2.51-.66c.15.41.29.81.44,1.22.43,1.18,2.05,1.53,2.74.36.4-.68.81-1.36,1.21-2.04h-2.59c2.3,4.15,8.6,3.31,9.57-1.4l-2.95-.4c.16,2.75,2.79,4.35,5.39,4.05,3.12-.37,4.83-3.37,6.04-5.94h-2.59c1.57,2.67,4.95,3.48,7.8,2.6,3.39-1.05,5.47-4.19,7.25-7.04h-2.59c.27.63.54,1.27.81,1.9.4.94,1.73.88,2.36.3.3-.28.61-.56.91-.84,1.42-1.31-.7-3.43-2.12-2.12-.3.28-.61.56-.91.84l2.36.3c-.27-.63-.54-1.27-.81-1.9-.47-1.1-2.06-.85-2.59,0-1.28,2.03-2.68,4.4-4.95,5.46-1.61.75-3.95.65-4.92-1.02-.53-.91-2.1-1.05-2.59,0-.71,1.5-1.53,3.52-3.13,4.28-.77.37-2.65.31-2.71-.87-.09-1.6-2.59-2.14-2.95-.4-.44,2.14-3,2.65-4.09.69-.55-1-2.03-.95-2.59,0-.4.68-.81,1.36-1.21,2.04l2.74.36c-.15-.41-.29-.81-.44-1.22-.41-1.12-1.6-1.4-2.51-.66l-2.87,2.36c-1.49,1.23.64,3.34,2.12,2.12h0Z"/><path class="cls-110" d="m782.71,592.74l1.97-2.4-2.36-.3,1.07,1.86c.41.71,1.35.94,2.05.54.5-.28,1-.57,1.49-.85l-2.2-1.69c-.7,1.94,1.29,3.96,3.23,3.33,1.8-.59,2.24-3.13.88-4.37-1.03-.94-2.41-.21-2.56,1.06-.19,1.57.89,2.96,2.27,3.59,1.55.71,3.3.6,4.72-.35s2.42-2.52,3.3-4.03c.81-1.4,1.72-2.99,3.44-3.3l-1.85-1.05c.13.87.26,1.74.38,2.62.12.8,1.13,1.24,1.85,1.05.86-.24,1.17-1.04,1.05-1.85-.13-.87-.26-1.74-.38-2.62s-1.13-1.18-1.85-1.05c-3.14.57-4.46,3.59-6.02,5.99-.54.83-1.34,1.96-2.41,2.07-.77.07-1.58-.32-1.49-1.06l-2.56,1.06c-.54-.5,1.11-.85.9-.28.46-1.28-1.13-2.3-2.2-1.69-.5.28-1,.57-1.49.85l2.05.54-1.07-1.86c-.44-.77-1.73-1.06-2.36-.3l-1.97,2.4c-.51.63-.61,1.51,0,2.12.53.53,1.6.63,2.12,0h0Z"/><path class="cls-110" d="m726.29,616.73l2.24-1.95-2.56-1.06c.39,4.68,5.32,6.92,9.56,6.15,5.32-.97,8.12-6.58,10.14-11.01l-2.8-.76c-.23,3.41,3.25,6.09,6.5,5.23l-1.69-.69c.48.63.96,1.26,1.44,1.88.58.76,1.6,1.05,2.36.3.96-.94,1.92-1.88,2.89-2.82l-2.51-.66c.8,2.26,2.93,3.94,5.41,3.72,2.29-.2,4.23-1.98,4.67-4.23.37-1.89-2.29-2.65-2.89-.8-.85,2.61,1.54,5.03,4.08,5.14,2.89.13,4.89-2.47,5.97-4.83h-2.59c.57.91,1.13,1.81,1.7,2.72.68,1.08,2.39.91,2.74-.36,1.39-4.98,7.59-6,10.77-2.08.47.58,1.66.59,2.12,0,2.17-2.77,4.34-5.53,6.52-8.3l-2.36-.3c.64.91,1.28,1.83,1.91,2.74,1.1,1.57,3.7.07,2.59-1.51-.64-.91-1.28-1.83-1.91-2.74-.49-.7-1.71-1.13-2.36-.3-2.17,2.77-4.34,5.53-6.52,8.3h2.12c-2.16-2.66-5.79-3.91-9.13-3.13s-5.78,3.39-6.66,6.54l2.74-.36c-.57-.91-1.13-1.81-1.7-2.72s-2.1-1.08-2.59,0c-.54,1.18-1.24,2.6-2.49,3.17-.79.36-2.44-.05-2.08-1.17l-2.89-.8c-.44,2.21-3.45,2.89-4.29.51-.37-1.05-1.66-1.49-2.51-.66-.96.94-1.92,1.88-2.89,2.82l2.36.3c-.48-.63-.96-1.26-1.44-1.88-.41-.54-.99-.88-1.69-.69-1.46.39-2.79-.89-2.7-2.34s-2.18-2.11-2.8-.76c-1.55,3.4-3.44,7.9-7.22,9.34-2.35.89-6.64.09-6.89-2.97-.11-1.32-1.55-1.94-2.56-1.06l-2.24,1.95c-1.46,1.27.67,3.38,2.12,2.12h0Z"/><path class="cls-110" d="m732.29,643.65l3.21-1.24-1.85-1.85c-.67,3.92,3.49,6.45,6.97,5.18,1.81-.66,3.22-2.04,4.37-3.54s2.15-3.49,3.73-4.72c.67-.52,1.53-.95,2.39-1,1.01-.06,1.73.55,2.51,1.08,1.47,1,3.12,1.56,4.71.45.29-.2.67-.47.88-.76.07-.09.45-.21.19-.24-.19-.02-.06.02,0,.09.58.54.86,1.4,1.4,2,1.19,1.32,3.03,1.64,4.69,1.12,2.16-.68,3.44-2.52,4.39-4.47.86-1.77,1.67-4.12,3.87-4.51l-1.69-.69c.78,1.61,1.38,3.27,2.84,4.4,1.29.99,2.87,1.47,4.49,1.36,1.92-.13,1.93-3.13,0-3-1.09.08-2.13-.19-2.94-.96-.87-.83-1.28-2.25-1.79-3.31-.31-.64-1.07-.8-1.69-.69-3.8.66-4.67,4.54-6.44,7.33-.63,1-2.31,2.58-3.49,1.41-1-.99-1.29-2.46-2.8-2.93-.65-.2-1.36-.12-1.97.16s-1.1,1.09-1.69,1.28c-.51.17-1.18-.45-1.58-.73-.7-.48-1.4-.94-2.22-1.18-3.65-1.08-6.7,1.81-8.63,4.52-1.11,1.58-2.13,3.37-3.85,4.38-.73.43-1.62.71-2.45.4-.62-.23-1.43-.88-1.3-1.63.17-1-.67-2.3-1.85-1.85l-3.21,1.24c-1.78.69-1.01,3.59.8,2.89h0Z"/><path class="cls-110" d="m639.47,660.85c5.41.33,10.82.35,15.63-2.49,4.2-2.48,7.38-6.28,10.57-9.89l-2.36-.3c.29.53.58,1.06.87,1.59.92,1.7,3.52.18,2.59-1.51-.29-.53-.58-1.06-.87-1.59-.44-.81-1.72-1.02-2.36-.3-2.92,3.31-5.82,6.87-9.63,9.22-4.43,2.73-9.43,2.59-14.45,2.28-1.93-.12-1.92,2.88,0,3h0Z"/><path class="cls-110" d="m578.53,689.85l1.23-2.8h-2.59c1.58,2.26,4.5,3.37,7.12,2.28s3.9-3.91,3.45-6.64l-2.74,1.16c1.58,3.18,5.69,3.96,8.81,2.79,3.94-1.49,5.86-5.56,7.4-9.19l-2.74-.36c.86,3.32,3.58,5.61,6.76,6.66,3.73,1.23,7.72.41,11.27-1.02,3.93-1.59,7.57-3.92,11.68-5.04,3.58-.97,7.73-.82,10.45,1.99.48.5,1.23.53,1.82.23,5.44-2.75,10.87-5.5,16.31-8.25,1.72-.87.21-3.46-1.51-2.59-5.44,2.75-10.87,5.5-16.31,8.25l1.82.23c-2.48-2.57-6.12-3.64-9.64-3.4-4.01.26-7.68,1.99-11.23,3.73s-7.47,3.77-11.56,3.46c-3.01-.23-6.17-1.96-6.96-5.04-.3-1.14-2.22-1.59-2.74-.36-1.14,2.7-2.43,6.06-5.14,7.57-1.9,1.06-4.81.98-5.88-1.17-.81-1.63-3-.4-2.74,1.16.48,2.91-3.42,4.43-5.09,2.04-.57-.81-2.1-1.13-2.59,0l-1.23,2.8c-.77,1.75,1.82,3.28,2.59,1.51h0Z"/><path class="cls-110" d="m741.52,654.57c0-.06,0-.47-.05-.14,0-.04.12-.37.04-.19-.1.23.22-.29.08-.11-.12.14.13-.12.16-.14-.19.18.11-.07.15-.09.03-.02.36-.18.21-.12s.2-.06.23-.07c.14-.04.28-.08.43-.09-.31.04.15.01.17.01.07,0,.33.03.31.02.25.04.6.14.89.23.66.2,1.3.46,1.96.66,1.22.37,2.55.49,3.78.06s2.31-1.35,2.59-2.68c.17-.79-.23-1.62-1.05-1.85-.74-.2-1.68.25-1.85,1.05-.01.06-.15.42,0,.14-.03.07-.25.34-.05.12-.02.03-.27.27-.13.15.13-.11-.19.11-.23.14-.1.06-.27.12-.07.04-.13.05-.26.09-.4.12-.07.02-.47.07-.16.04-.12.01-.24.02-.35.02s-.23,0-.35,0c-.18-.02-.18-.02-.01,0l-.18-.04c-.37-.09-.72-.19-1.08-.31-.65-.22-1.29-.47-1.96-.65-1.39-.37-2.78-.33-4.07.36-1.19.64-2.14,1.94-1.99,3.34.09.81.63,1.5,1.5,1.5.74,0,1.59-.69,1.5-1.5h0Z"/><path class="cls-110" d="m753.13,653.71c4.49.9,9.03-.87,11.8-4.49l-.54.54c.62-.29,1.24-.57,1.87-.86.74-.34.92-1.4.54-2.05-.44-.75-1.31-.88-2.05-.54-.61.28-1.3.51-1.87.86-.49.3-.74.8-1.16,1.23-.72.72-1.44,1.22-2.39,1.69-1.63.81-3.66,1.08-5.4.74-.79-.16-1.62.23-1.85,1.05-.2.74.25,1.69,1.05,1.85h0Z"/><path class="cls-110" d="m770.51,647.35l.2,2.97c.1,1.4,2.04,2.15,2.8.76s1.45-2.67,2.17-4l-2.8-.76c-.06,2.31,2.22,3.45,4.28,3.21,1.27-.15,2.24-.76,3.15-1.63.85-.81,1.61-2.02,2.78-2.39,1.39-.44,3,.41,4.32.79,1.19.34,2.34.47,3.56.21,2.29-.49,3.98-2.2,3.61-4.63l-.69,1.69c3.88-1.97,7.76-3.95,11.64-5.92,1.72-.88.2-3.46-1.51-2.59-3.88,1.97-7.76,3.95-11.64,5.92-.64.33-.79,1.06-.69,1.69.16,1.05-2.46.99-3.07.84-1.97-.5-3.84-1.42-5.93-1-1.84.37-2.99,1.73-4.25,3-.45.46-.89.94-1.56,1.04-.24.04-.73.05-.94-.1-.25-.18-.06.02-.06-.14.04-1.47-2.09-2.06-2.8-.76s-1.45,2.67-2.17,4l2.8.76-.2-2.97c-.13-1.92-3.13-1.93-3,0h0Z"/><path class="cls-110" d="m848.53,607.12c1.93,0,1.93-3,0-3s-1.93,3,0,3h0Z"/><ellipse class="cls-103" cx="1436.07" cy="694.35" rx="39.38" ry="10.94" transform="translate(-5.23 10.91) rotate(-.43)"/><path class="cls-102" d="m1463.48,667.09c2.75,6.41-10.56,30.11-27.39,30.24-16.82.13-30.46-23.33-27.8-29.83,1.58-3.86,8.23-.05,28.44-.29,19.12-.22,25.19-3.77,26.75-.13Z"/><path class="cls-102" d="m1465.07,669.36c26.22,2.59-3.32,18-8.38,18.09l8.38-18.09Z"/><path class="cls-4" d="m1466.81,673.52c10.13.99-1.28,6.89-3.24,6.92l3.24-6.92Z"/><path class="cls-109" d="m1438.93,625.38c.4,2.06-.95,3.85-2.17,4.86-1.22,1.01-2.67,2.33-2.65,4.48.02,2.02,1.4,3.36,2.67,3.82s2.66.48,3.74,1.62c1.45,1.54,1.83,4.83,1.14,7.33s-2.23,4.22-3.89,5.12-3.43,1.06-5.18,1.22c.75-1.7,2.07-2.53,3.18-3.65s2.16-3.03,1.85-5.04c-.29-1.9-1.62-2.9-2.83-3.46s-2.56-1.04-3.29-2.63c-.82-1.78-.51-4.36.35-6.08s2.14-2.79,3.39-3.8c1.17-.95,2.33-1.9,3.5-2.85"/><path class="cls-111" d="m1437.05,625.38c0,3.21-3.63,4.55-4.52,7.37-.57,1.8-.27,3.86.82,5.4,1.24,1.75,2.57,1.59,4.22,2.55,2.11,1.23,2.74,2.82,2.41,5.19-.57,4.2-3.54,5.63-7.4,6.05l1.62,2.82c2.29-3.92,7.78-7.06,4.29-12.34-1.48-2.23-5.29-2.78-5.61-5.81-.43-3.96,4.6-6.9,7.17-8.99,1.87-1.52-.8-4.16-2.65-2.65-4.12,3.36-9.38,6.99-8.11,13.15.46,2.23,1.58,3.09,3.18,4.48.44.26.9.49,1.37.68,1.81,2.82,1.72,4.94-.25,6.37-.85,1.17-1.86,1.94-2.61,3.23-.66,1.13.16,2.98,1.62,2.82,6.85-.74,12.46-5.12,11.11-12.73-.61-3.46-2.24-3.68-4.49-5.65-4.16-3.65-1.79-4.51.08-7.01,1.18-1.58,1.52-2.98,1.51-4.91,0-2.41-3.75-2.42-3.75,0h0Z"/><ellipse class="cls-105" cx="1435.7" cy="665.59" rx="27.77" ry="6.51" transform="translate(-5 10.88) rotate(-.43)"/><path class="cls-117" d="m1561.05,636.02c9.18.05,18.37.09,27.55.14l11.81.06c3.28.02,7.29.59,10.52-.35,10.47-3.04,4.46-20.22-1-25.32-17.71-16.53-56.32-4.18-51.81,22.72.4,2.37,4.01,1.37,3.62-1-3.94-23.48,32.31-33.56,46.47-18.14,2.66,2.89,5.68,10.17,4.44,14.25-1.34,4.42-4.65,4.12-8.3,4.11-2.95-.01-5.9-.03-8.86-.04-11.48-.06-22.96-.11-34.44-.17-2.41-.01-2.42,3.74,0,3.75h0Z"/><polygon class="cls-14" points="1562.26 650.87 1577.73 647.85 1588.64 650.87 1601.63 647.85 1612.29 651.73 1611.12 697 1565.37 694.86 1562.26 650.87"/><path class="cls-114" d="m1580.37,660.35c2.93-9.2,6.88-17.94,10.93-26.58,7.68-16.38,15.76-32.52,24.23-48.4,1.82,1.75,3.65,3.51,5.47,5.26-14.4,22.03-25.65,46.71-33.18,72.77-2.57,0-5.13-1.18-6.97-3.23"/><path class="cls-122" d="m1582.18,660.85c4.23-12.96,10.23-25.25,16.16-37.5,6.03-12.47,12.31-24.8,18.82-37.03l-2.94.38c1.82,1.75,3.65,3.51,5.47,5.26-.1-.76-.2-1.51-.29-2.27-14.68,22.64-25.8,47.33-33.37,73.22l1.81-1.38c-2.29-.1-4.17-1-5.64-2.68-1.75-1.66-4.4.98-2.65,2.65,2.46,2.34,4.93,3.48,8.29,3.78.82.07,1.59-.64,1.81-1.38,7.48-25.59,18.47-49.95,32.99-72.32.44-.68.28-1.72-.29-2.27-1.82-1.75-3.65-3.51-5.47-5.26-.84-.81-2.37-.71-2.94.38-6.81,12.79-13.37,25.71-19.66,38.77-5.76,11.97-11.56,24-15.69,36.65-.75,2.3,2.87,3.28,3.62,1h0Z"/><path class="cls-122" d="m1590.65,678.11c-2.84,1.32-5.69,2.64-8.53,3.96-1.21.56-1.24,2.69,0,3.24,4.58,2.04,9.17,4.08,13.75,6.12.94.42,1.98.27,2.57-.67,2.32-3.75,6.02-5.47,10.2-6.35,1.57-.33,1.84-2.69.45-3.43-6.41-3.4-16.37-11.79-20.57-1.76-.93,2.22,2.7,3.19,3.62,1,2.03-4.86,12.59,2.68,15.07,4,.15-1.14.3-2.28.45-3.43-5.14,1.08-9.64,3.54-12.44,8.08l2.57-.67c-4.58-2.04-9.17-4.08-13.75-6.12v3.24c2.84-1.32,5.69-2.64,8.53-3.96,2.19-1.01.28-4.25-1.89-3.24h0Z"/><path class="cls-122" d="m1591.03,666.28c3.3-.96,5.95-2.63,8.93-.67s5.66,4.28,8.47,6.4c.15-1.14.3-2.28.45-3.43-5.35,1.02-10.7,2.03-16.05,3.05l2.31,1.31c-.99-3.32-1.99-6.64-2.98-9.95-.69-2.31-4.31-1.32-3.62,1,.99,3.32,1.99,6.64,2.98,9.95.31,1.03,1.29,1.5,2.31,1.31,5.35-1.02,10.7-2.03,16.05-3.05,1.77-.34,1.59-2.56.45-3.43-1.81-1.37-3.63-2.74-5.44-4.11-1.51-1.14-3.67-3.52-5.44-4.11-2.65-.88-6.79,1.36-9.4,2.12-2.31.67-1.33,4.29,1,3.62h0Z"/><path class="cls-122" d="m1574.79,678.79c-2.26,1.19-4.53,2.37-6.79,3.56-1.57.82-.94,2.88.45,3.43,3.54,1.39,6.6,3.48,8.98,6.46.85,1.07,2.9.49,3.13-.83.33-1.88,1.4-3,3.03-3.96,1.27-.75,1.15-2.46,0-3.24-2.47-1.66-4.93-3.33-7.4-4.99-2.01-1.35-3.88,1.89-1.89,3.24,2.47,1.66,4.93,3.33,7.4,4.99v-3.24c-2.38,1.4-4.26,3.41-4.75,6.2l3.13-.83c-2.79-3.5-6.5-5.8-10.63-7.42.15,1.14.3,2.28.45,3.43,2.26-1.19,4.53-2.37,6.79-3.56,2.14-1.12.24-4.36-1.89-3.24h0Z"/><path class="cls-122" d="m1570.41,669.04c-.39,2.91-.22,5.58.7,8.39.33,1.02,1.27,1.51,2.31,1.31,4.12-.78,8.25-1.04,12.44-.9,1.46.05,2.28-1.62,1.62-2.82-1.94-3.54-3.88-7.07-5.82-10.61-.41-.74-1.33-1.06-2.12-.86-3.07.76-6.14,1.53-9.21,2.29-1.85.46-1.71,3.09,0,3.62l.17-.69c-1.34,2.01,1.91,3.89,3.24,1.89,1.48-2.22-.24-4.15-2.41-4.82v3.62c3.07-.76,6.14-1.53,9.21-2.29l-2.12-.86c1.94,3.54,3.88,7.07,5.82,10.61.54-.94,1.08-1.88,1.62-2.82-4.52-.16-8.99.19-13.44,1.03l2.31,1.31c-.69-2.12-1-4.17-.7-6.39.32-2.36-3.29-3.38-3.62-1h0Z"/><path class="cls-122" d="m1559.17,634.15c1.52,20.23,2.8,40.48,4.32,60.71.08,1.05.8,1.82,1.88,1.88,15.25.71,30.5,1.43,45.75,2.14,1.03.05,1.85-.9,1.88-1.88.56-21.5,1.12-43,1.68-64.5.06-2.41-3.69-2.41-3.75,0-.56,21.5-1.12,43-1.68,64.5l1.88-1.88c-15.25-.71-30.5-1.43-45.75-2.14l1.88,1.88c-1.52-20.23-2.8-40.48-4.32-60.71-.18-2.39-3.93-2.41-3.75,0h0Z"/><path class="cls-116" d="m1013.87,372c20.38-.21,40.75-.41,61.13-.62-1.71-17.98-3.41-35.95-5.12-53.93-1.53-16.15-3.31-33.08-11.22-46.29-7.92-13.21-24.13-20.83-35.53-11.97-6.23,4.84-9.76,13.54-10.95,22.31-1.19,8.76-.32,17.72.54,26.54,2.15,21.91,4.31,43.82,6.46,65.74"/><path class="cls-113" d="m1013.87,373.87c20.38-.21,40.75-.41,61.13-.62.94,0,1.97-.85,1.88-1.88-1.94-20.49-3.67-41.02-5.87-61.48-1.69-15.71-4.21-33.63-15.29-45.8-8.3-9.12-22.68-14.76-33.54-6.52-13.57,10.3-13.15,30.6-11.79,45.73,2.11,23.51,4.61,46.98,6.91,70.47.23,2.38,3.99,2.4,3.75,0-1.74-17.72-3.49-35.45-5.23-53.17-1.64-16.68-5.93-36.5,2.23-52.13,3.37-6.45,9.16-11.46,16.77-11.22,7.05.22,13.63,4.38,18.24,9.49,10.66,11.84,12.8,29.65,14.37,44.83,2.06,19.92,3.8,39.87,5.69,59.8l1.88-1.88c-20.38.21-40.75.41-61.13.62-2.41.02-2.42,3.77,0,3.75h0Z"/><path class="cls-115" d="m1011.92,332.76c-2.03-.75-4.1-1.5-6.23-1.54s-4.36.74-5.78,2.63c-2.15,2.85-1.88,7.18-1.49,10.98.66,6.43,1.32,12.86,1.98,19.29.29,2.82.67,5.86,2.36,7.85,2.79,3.26,7.38,1.96,11.07.44"/><path class="cls-118" d="m1012.42,330.96c-4.82-1.73-10.63-2.83-14.13,1.96-3.86,5.28-1.56,13.74-.96,19.64s-.19,15.34,3.81,20.37c3.36,4.23,8.82,3.01,13.19,1.3,2.22-.87,1.26-4.5-1-3.62-1.8.7-4.04,1.73-6.02,1.52-3.54-.36-4.22-3.01-4.74-5.65-.89-4.51-1.02-9.35-1.49-13.92-.41-3.97-1.19-8.12-1.06-12.11.25-7.46,5.52-7.98,11.39-5.87,2.28.82,3.26-2.81,1-3.62h0Z"/><ellipse class="cls-103" cx="974.71" cy="386.84" rx="39.38" ry="10.94" transform="translate(-2.91 7.41) rotate(-.43)"/><path class="cls-102" d="m1002.12,359.59c2.75,6.41-10.56,30.11-27.39,30.24-16.82.13-30.46-23.33-27.8-29.83,1.58-3.86,8.23-.05,28.44-.29,19.12-.22,25.19-3.77,26.75-.13Z"/><path class="cls-102" d="m1003.71,361.85c26.22,2.59-3.32,18-8.38,18.09l8.38-18.09Z"/><path class="cls-4" d="m1005.45,366.01c10.13.99-1.28,6.89-3.24,6.92l3.24-6.92Z"/><path class="cls-109" d="m977.56,317.87c.4,2.06-.95,3.85-2.17,4.86s-2.67,2.33-2.65,4.48c.02,2.02,1.4,3.36,2.67,3.82s2.66.48,3.74,1.62c1.45,1.54,1.83,4.83,1.14,7.33s-2.23,4.22-3.89,5.12-3.43,1.06-5.18,1.22c.75-1.7,2.07-2.53,3.18-3.65s2.16-3.03,1.85-5.04c-.29-1.9-1.62-2.9-2.83-3.46s-2.56-1.04-3.29-2.63c-.82-1.78-.51-4.36.35-6.08s2.14-2.79,3.39-3.8c1.17-.95,2.33-1.9,3.5-2.85"/><path class="cls-111" d="m975.69,317.87c0,3.21-3.63,4.55-4.52,7.37-.57,1.8-.27,3.86.82,5.4,1.24,1.75,2.57,1.59,4.22,2.55,2.11,1.23,2.74,2.82,2.41,5.19-.57,4.2-3.54,5.63-7.4,6.05l1.62,2.82c2.29-3.92,7.78-7.06,4.29-12.34-1.48-2.23-5.29-2.78-5.61-5.81-.43-3.96,4.6-6.9,7.17-8.99,1.87-1.52-.8-4.16-2.65-2.65-4.12,3.36-9.38,6.99-8.11,13.15.46,2.23,1.58,3.09,3.18,4.48.44.26.9.49,1.37.68,1.81,2.82,1.72,4.94-.25,6.37-.85,1.17-1.86,1.94-2.61,3.23-.66,1.13.16,2.98,1.62,2.82,6.85-.74,12.46-5.12,11.11-12.73-.61-3.46-2.24-3.68-4.49-5.65-4.16-3.65-1.79-4.51.08-7.01,1.18-1.58,1.52-2.98,1.51-4.91,0-2.41-3.75-2.42-3.75,0h0Z"/><ellipse class="cls-105" cx="974.34" cy="358.09" rx="27.77" ry="6.51" transform="translate(-2.68 7.38) rotate(-.43)"/></svg>