<?xml version="1.0" encoding="UTF-8"?><svg id="Layer_1" xmlns="http://www.w3.org/2000/svg" width="80.87mm" height="85.13mm" viewBox="0 0 229.23 241.3"><defs><style>.cls-1{fill:#bf1e2d;}.cls-1,.cls-2,.cls-3{stroke:#231f20;stroke-miterlimit:10;stroke-width:3px;}.cls-2{fill:#f7941d;}.cls-3{fill:#fbb040;}.cls-4{fill:#231f20;}.cls-4,.cls-5,.cls-6{stroke-width:0px;}.cls-5{fill:#c2b59b;}.cls-6{fill:#009444;}</style></defs><polygon class="cls-2" points="44.15 104.61 135.33 71.27 168.54 104.61 73.41 138.73 44.15 104.61"/><polygon class="cls-3" points="44.15 176.32 77.22 209.6 73.41 138.73 44.15 104.61 44.15 176.32"/><polygon class="cls-3" points="168.54 179.18 168.54 104.61 73.41 138.73 77.22 209.6 168.54 179.18"/><ellipse class="cls-1" cx="125.08" cy="157.11" rx="22.91" ry="23.61"/><path class="cls-6" d="m139.42,138.56c-.32-3.95.84-8.1,2.93-10.53s5.05-3.06,7.51-1.59c1.28,3.49.86,8.2-.98,11.07-1.16,1.8-2.76,2.84-4.39,3.34s-3.31.5-4.98.5"/><path class="cls-4" d="m141.29,138.56c-.14-2.8.18-5.8,1.71-8.23,1.2-1.92,5.11-4.68,5.6-1.06.32,2.41.04,5.22-1.34,7.29-1.81,2.7-4.77,2.9-7.75,2.91-2.41,0-2.42,3.76,0,3.75,4.32-.02,8.53-.85,10.99-4.77,2-3.18,3.09-9.3,1.07-12.74-1.91-3.24-7.23-1.91-9.54.03-3.62,3.03-4.7,8.31-4.48,12.81.12,2.4,3.87,2.42,3.75,0h0Z"/><path class="cls-4" d="m142.51,138.73c-.18-4.28.08-8.57-.07-12.85-.08-2.13.18-5.72-1.89-7.04-.85-.55-2.07-.18-2.57.67l-.24.4c-1.22,2.09,2.02,3.98,3.24,1.89l.24-.4-2.57.67c-.73-.8-.76-.33-.1,1.4.07.8.11,1.6.14,2.4.05,1.29.04,2.58.03,3.88-.02,3-.09,5.98.04,8.98.1,2.4,3.85,2.42,3.75,0h0Z"/><path class="cls-5" d="m122.32,97.44c5.1-20.99,10.2-41.98,15.3-62.98,10.01,8.64,20.02,17.28,30.03,25.91-3.75,2.43-7.5,4.87-11.24,7.3-5.52-5.98-11.04-11.95-16.56-17.93-4.53,15.71-9.06,31.41-13.59,47.12-.75.3-1.5.6-2.25.9"/><path class="cls-4" d="m124.12,97.94c5.1-20.99,10.2-41.98,15.3-62.98l-3.13.83c10.01,8.64,20.02,17.28,30.03,25.91l.38-2.94c-3.75,2.43-7.5,4.87-11.24,7.3l2.27.29c-5.52-5.98-11.04-11.95-16.56-17.93-.98-1.06-2.76-.48-3.13.83-2.36,8.17-4.71,16.33-7.07,24.5-1.09,3.77-2.17,7.54-3.26,11.31-.78,2.71-1.59,9.85-4.2,10.9-2.21.89-1.25,4.52,1,3.62,3.62-1.45,3.51-2.04,4.64-5.98,1.36-4.71,2.72-9.42,4.08-14.14,2.81-9.74,5.62-19.48,8.43-29.21l-3.13.83c5.52,5.98,11.04,11.95,16.56,17.93.54.58,1.6.73,2.27.29,3.75-2.43,7.5-4.87,11.24-7.3.94-.61,1.34-2.12.38-2.94-10.01-8.64-20.02-17.28-30.03-25.91-1.02-.88-2.78-.63-3.13.83-5.1,20.99-10.2,41.98-15.3,62.98-.57,2.34,3.05,3.34,3.62,1h0Z"/></svg>