<?xml version="1.0" encoding="UTF-8"?><svg id="Layer_1" xmlns="http://www.w3.org/2000/svg" width="83.53mm" height="92.21mm" viewBox="0 0 236.77 261.39"><defs><style>.cls-1{stroke-width:2px;}.cls-1,.cls-2,.cls-3,.cls-4{stroke:#603913;stroke-miterlimit:10;}.cls-1,.cls-4,.cls-5{fill:#fff;}.cls-2{fill:#c2b59b;}.cls-2,.cls-3,.cls-4{stroke-width:3px;}.cls-3{fill:#9c8579;}.cls-6{fill:#603913;}.cls-6,.cls-5{stroke-width:0px;}</style></defs><ellipse class="cls-3" cx="111.54" cy="184.63" rx="90.02" ry="22.89" transform="translate(-1.39 .85) rotate(-.43)"/><path class="cls-2" d="m174.23,127.55c6.28,13.4-24.18,63.03-62.66,63.33-38.45.3-69.6-48.79-63.5-62.39,3.62-8.08,18.82-.12,65.01-.64,43.72-.49,57.58-7.93,61.15-.31Z"/><path class="cls-2" d="m177.87,132.29c59.93,5.39-7.6,37.68-19.19,37.88l19.19-37.88Z"/><path class="cls-1" d="m181.83,141c23.15,2.06-2.94,14.42-7.41,14.5l7.41-14.5Z"/><path class="cls-5" d="m118.15,40.28c.91,4.3-2.17,8.06-4.96,10.17s-6.12,4.89-6.07,9.37c.04,4.23,3.18,7.03,6.09,7.98,2.9.96,6.09.99,8.55,3.38,3.32,3.22,4.19,10.11,2.61,15.33-1.58,5.22-5.11,8.84-8.9,10.72s-7.85,2.23-11.85,2.57c1.73-3.56,4.73-5.29,7.27-7.65s4.93-6.35,4.23-10.56c-.66-3.97-3.71-6.07-6.47-7.24-2.76-1.16-5.85-2.18-7.53-5.5-1.88-3.73-1.15-9.12.81-12.73,1.97-3.61,4.9-5.83,7.75-7.96,2.67-1.99,5.33-3.98,8-5.97"/><path class="cls-6" d="m116.28,40.28c.81,7.91-8.41,9.61-10.54,16.29-1.43,4.48.46,9.26,4.35,11.79,2.67,1.74,5.98,1.68,8.7,3.27,3.8,2.23,4.7,6.52,4.42,10.74-.73,11-10.04,14.72-19.6,15.55l1.62,2.82c2.84-4.97,8.51-7.27,10.79-12.69,1.9-4.5,1.2-9.54-2.5-12.88-1.59-1.43-3.44-2.19-5.36-3.05-4.5-2.03-6.74-5.09-6.09-10.19,1.11-8.7,10.17-13.37,16.55-18.13,1.91-1.43.04-4.68-1.89-3.24-8.59,6.41-23.85,15.86-17.33,29,2.71,5.47,9.28,4.98,12.56,9.49,5.84,8.04-6.63,13.95-9.97,19.79-.66,1.15.16,2.95,1.62,2.82,7.49-.65,14.78-2.12,19.5-8.53,3.97-5.39,5.18-13.21,2.48-19.44-1.14-2.62-2.94-4.66-5.56-5.87-4.25-1.98-10.81-1.57-11.04-8.02-.18-4.99,5.33-7.25,8.08-10.49,2.27-2.66,3.31-5.57,2.95-9.05-.24-2.38-4-2.4-3.75,0h0Z"/><ellipse class="cls-4" cx="110.73" cy="124.45" rx="63.48" ry="13.62" transform="translate(-.93 .84) rotate(-.43)"/></svg>