<?xml version="1.0" encoding="UTF-8"?><svg id="Layer_1" xmlns="http://www.w3.org/2000/svg" width="82.25mm" height="89.36mm" viewBox="0 0 233.16 253.31"><defs><style>.cls-1{fill:#e7e8e9;}.cls-1,.cls-2,.cls-3{stroke-miterlimit:10;stroke-width:.25px;}.cls-1,.cls-3{stroke:#603913;}.cls-2{fill:#726659;stroke:#3c2415;}.cls-3{fill:#764d29;}.cls-4{fill:#603913;}.cls-4,.cls-5{stroke-width:0px;}.cls-5{fill:#231f20;}</style></defs><path class="cls-3" d="m65.87,48.63h102.45s-.03,152.07,0,152.68c1.31,25.43-101.09,22.19-102.45,0V48.63Z"/><ellipse class="cls-1" cx="116.4" cy="48.63" rx="55.37" ry="18.81"/><ellipse class="cls-1" cx="74.63" cy="36.75" rx="8.76" ry="12.01"/><path class="cls-4" d="m78.3,49.79c1.37,1.61,2.74,3.22,4.11,4.83.53.62,1.67.93,2.43.64,2.24-.84,4.29-2.19,5.54-4.29,1.31-2.19,1.41-4.92.29-7.19-1.02-2.08-3.46-3.44-5.77-3.23-1.34.12-2.55.57-3.55,1.5-.94.88-1.41,2.1-1.5,3.36-.08,1.08.24,2.34.86,3.24.44.65.91,1.14,1.57,1.57s1.38.56,2.16.66c.59.07,1.37-.33,1.77-.73.43-.43.76-1.15.73-1.77s-.24-1.32-.73-1.77c-.52-.48-1.07-.64-1.77-.73h-.1c.22.02.44.05.66.08-.13-.02-.25-.07-.38-.1.65.13.49.23.25.09-.48-.28.39.38.13.11-.08-.08-.36-.42-.06-.03s.03.03-.03-.07-.25-.52-.05-.05.02.03,0-.08c-.04-.13-.06-.26-.08-.39l.09.66c-.03-.27-.04-.53-.01-.79l-.09.66c.02-.13.04-.26.08-.39.15-.55-.27.48-.07.14.05-.08.11-.17.15-.25-.3.37-.36.46-.2.26.05-.05.1-.11.16-.16.27-.29-.58.37-.07.06.09-.06.2-.1.29-.15-.43.17-.53.22-.29.13.07-.02.14-.04.21-.06.14-.04.29-.06.43-.08l-.66.09c.34-.04.67-.03,1,0l-.66-.09c.17.03.33.06.5.11.09.03.18.06.27.09.34.1-.3-.11-.29-.12.04-.03.44.25.49.28.3.18-.25-.18-.24-.19.03-.01.19.17.2.19.06.06.11.12.17.18.18.19-.35-.54-.13-.15.1.16.18.33.28.49.14.25-.19-.53-.11-.25.03.1.07.2.1.3.06.2.1.41.13.62l-.09-.66c.06.47.06.94,0,1.41l.09-.66c-.04.28-.1.55-.18.82-.07.23-.31.56.05-.06-.07.11-.11.24-.17.35-.13.24-.29.45-.42.68.36-.6.2-.25.06-.09-.1.12-.21.23-.32.34-.2.2-.41.43-.65.58l.29-.23c-.07.05-.15.11-.22.16-.11.08-.22.15-.34.22-.23.14-.47.27-.71.39-.12.06-.24.12-.37.17-.4.19.61-.24-.03,0l2.43.64c-1.37-1.61-2.74-3.22-4.11-4.83-.85-1-2.67-.94-3.54,0-.98,1.06-.91,2.47,0,3.54h0Z"/><path class="cls-4" d="m85.19,48.19c3.22,0,3.22-5,0-5s-3.22,5,0,5h0Z"/><path class="cls-4" d="m80.53,48.19c3.22,0,3.22-5,0-5s-3.22,5,0,5h0Z"/><polygon class="cls-2" points="65.32 98.68 168.3 99.95 168.3 172.61 66.45 171.34 65.32 98.68"/><path class="cls-5" d="m88.16,123.31v-16.75h-3.89v-2.61h11.13v2.61h-3.89v16.75h-3.36Z"/><path class="cls-5" d="m96.29,108.52c0-.78.16-1.47.49-2.07s.77-1.1,1.32-1.5c.53-.38,1.12-.67,1.79-.87.67-.2,1.35-.3,2.03-.3s1.36.1,2.03.3c.67.2,1.28.49,1.83.87.53.4.96.9,1.29,1.5.33.6.49,1.29.49,2.07v10.22c0,.82-.16,1.51-.49,2.09-.33.58-.76,1.06-1.29,1.44-.55.4-1.16.7-1.83.9s-1.34.3-2.03.3-1.36-.1-2.03-.3-1.27-.5-1.79-.9c-.55-.38-.99-.86-1.32-1.44s-.49-1.28-.49-2.09v-10.22Zm3.36,10.22c0,.67.23,1.16.68,1.48s.98.48,1.6.48,1.15-.16,1.6-.48.68-.81.68-1.48v-10.22c0-.67-.23-1.17-.68-1.48-.45-.32-.98-.48-1.6-.48s-1.15.16-1.6.48c-.45.32-.68.81-.68,1.48v10.22Z"/><path class="cls-5" d="m110.39,117.16v-2.77h9.92v2.77h-9.92Z"/><path class="cls-5" d="m123.14,108.52c0-.78.16-1.47.49-2.07.33-.6.77-1.1,1.32-1.5.53-.38,1.12-.67,1.79-.87.67-.2,1.35-.3,2.03-.3s1.36.1,2.03.3c.67.2,1.28.49,1.83.87.53.4.96.9,1.29,1.5.33.6.49,1.29.49,2.07v.98h-3.36v-.98c0-.67-.22-1.17-.67-1.48-.45-.32-.98-.48-1.6-.48s-1.15.16-1.6.48c-.45.32-.68.81-.68,1.48v10.22c0,.67.22,1.16.68,1.48.45.32.98.48,1.6.48s1.15-.16,1.6-.48c.45-.32.67-.81.67-1.48v-3.64h-2.67v-2.45h6.03v6.09c0,.82-.17,1.51-.49,2.09-.33.58-.76,1.06-1.29,1.44-.55.4-1.16.7-1.83.9s-1.35.3-2.03.3-1.36-.1-2.03-.3-1.27-.5-1.79-.9c-.55-.38-.99-.86-1.32-1.44-.33-.58-.49-1.28-.49-2.09v-10.22Z"/><path class="cls-5" d="m137.17,108.52c0-.78.16-1.47.49-2.07s.77-1.1,1.32-1.5c.53-.38,1.12-.67,1.79-.87.67-.2,1.35-.3,2.03-.3s1.36.1,2.03.3c.67.2,1.28.49,1.83.87.53.4.96.9,1.29,1.5.33.6.49,1.29.49,2.07v10.22c0,.82-.16,1.51-.49,2.09-.33.58-.76,1.06-1.29,1.44-.55.4-1.16.7-1.83.9s-1.34.3-2.03.3-1.36-.1-2.03-.3-1.27-.5-1.79-.9c-.55-.38-.99-.86-1.32-1.44s-.49-1.28-.49-2.09v-10.22Zm3.36,10.22c0,.67.23,1.16.68,1.48s.98.48,1.6.48,1.15-.16,1.6-.48.68-.81.68-1.48v-10.22c0-.67-.23-1.17-.68-1.48-.45-.32-.98-.48-1.6-.48s-1.15.16-1.6.48c-.45.32-.68.81-.68,1.48v10.22Z"/><path class="cls-5" d="m82.87,159.2v1.58c0,.79-.18,1.54-.54,2.25s-.87,1.34-1.5,1.89c-.64.55-1.39.99-2.25,1.31-.86.32-1.78.49-2.77.49-.84,0-1.7-.1-2.57-.29-.87-.19-1.66-.53-2.36-1.01-.7-.48-1.27-1.1-1.72-1.85-.45-.76-.68-1.72-.68-2.9v-14.11c0-.84.18-1.62.52-2.34.35-.72.84-1.34,1.48-1.87.64-.53,1.4-.94,2.29-1.24.89-.3,1.87-.45,2.95-.45,2.09,0,3.79.56,5.11,1.69.64.55,1.14,1.21,1.5,1.96s.54,1.58.54,2.47v1.44h-4.45v-1.22c0-.72-.25-1.34-.74-1.87s-1.16-.79-2.01-.79c-1.11,0-1.84.28-2.2.85-.36.56-.54,1.28-.54,2.14v13.1c0,.74.2,1.37.59,1.87s1.1.76,2.12.76c.29,0,.6-.04.94-.13.33-.08.65-.22.94-.41.26-.19.48-.46.65-.79.17-.34.26-.76.26-1.26v-1.26h4.45Z"/><path class="cls-5" d="m86.23,146.92c0-1.03.22-1.94.65-2.74.44-.79,1.02-1.45,1.75-1.98.7-.5,1.49-.89,2.38-1.15.89-.26,1.78-.4,2.68-.4s1.79.13,2.68.4c.89.26,1.69.65,2.42,1.15.7.53,1.27,1.19,1.7,1.98.44.79.65,1.71.65,2.74v13.54c0,1.08-.22,2-.65,2.77-.44.77-1,1.4-1.7,1.91-.73.53-1.53.92-2.42,1.19-.89.26-1.78.4-2.68.4s-1.8-.13-2.68-.4-1.68-.66-2.38-1.19c-.73-.5-1.31-1.14-1.75-1.91-.44-.77-.65-1.69-.65-2.77v-13.54Zm4.45,13.54c0,.89.3,1.54.89,1.96.6.42,1.3.63,2.12.63s1.52-.21,2.12-.63.89-1.07.89-1.96v-13.54c0-.89-.3-1.54-.89-1.96s-1.3-.63-2.12-.63-1.52.21-2.12.63c-.6.42-.89,1.07-.89,1.96v13.54Z"/><path class="cls-5" d="m105.08,166.51v-25.63h13.26v3.46h-8.81v7.77h7.68v3.46h-7.68v10.94h-4.45Z"/><path class="cls-5" d="m121.22,166.51v-25.63h13.26v3.46h-8.81v7.77h7.68v3.46h-7.68v10.94h-4.45Z"/><path class="cls-5" d="m137.36,166.51v-25.63h13.26v3.46h-8.81v7.52h7.68v3.46h-7.68v7.52h8.81v3.67h-13.26Z"/><path class="cls-5" d="m153.5,166.51v-25.63h13.26v3.46h-8.81v7.52h7.68v3.46h-7.68v7.52h8.81v3.67h-13.26Z"/></svg>