<?xml version="1.0" encoding="UTF-8"?><svg id="Layer_1" xmlns="http://www.w3.org/2000/svg" width="439" height="374" viewBox="0 0 439 374"><defs><style>.cls-1{fill:none;stroke-width:2px;}.cls-1,.cls-2{stroke:#603813;stroke-miterlimit:10;}.cls-2{stroke-width:3px;}.cls-2,.cls-3{fill:#fff;}.cls-4{fill:#603813;}.cls-4,.cls-3{stroke-width:0px;}</style></defs><path class="cls-2" d="m306.35,171.12c93.79,7.69-11.94,54.2-30.07,54.51l30.07-54.51Z"/><path class="cls-1" d="m312.55,183.63c36.23,2.94-4.61,20.74-11.62,20.86l11.62-20.86Z"/><ellipse class="cls-2" cx="208.87" cy="260.08" rx="140.9" ry="32.92" transform="translate(-1.97 1.6) rotate(-.44)"/><path class="cls-2" d="m307.06,177.92c9.81,19.27-37.91,90.68-98.13,91.16-60.19.47-108.89-70.11-99.33-89.66,5.68-11.62,29.45-.19,101.74-.98,68.42-.75,90.14-11.46,95.71-.51Z"/><path class="cls-3" d="m219.38,52.45c1.43,6.19-3.41,11.59-7.78,14.63-4.36,3.04-9.58,7.03-9.51,13.49.06,6.08,4.98,10.1,9.52,11.47s9.52,1.42,13.37,4.86c5.19,4.63,6.54,14.54,4.06,22.05-2.48,7.52-8.01,12.73-13.94,15.42-5.92,2.7-12.29,3.21-18.55,3.7,2.71-5.12,7.4-7.62,11.39-11.02,3.99-3.4,7.72-9.13,6.62-15.19-1.04-5.72-5.79-8.73-10.11-10.4-4.32-1.67-9.16-3.12-11.78-7.91-2.93-5.36-1.79-13.12,1.29-18.31,3.08-5.19,7.68-8.4,12.14-11.45,4.18-2.86,8.35-5.73,12.53-8.59"/><path class="cls-4" d="m217.57,52.95c1.72,11.45-14.44,14.18-16.97,24.31-1.99,7.99,3.87,14.67,11.2,16.78,5.41,1.56,11.18,1.81,14.27,7.28,2.84,5.03,2.93,11.73,1.17,17.13-4.46,13.62-18.02,16.74-30.68,17.75l1.62,2.82c4.6-7.8,14.11-10.65,17.42-19.53,2.81-7.52-.63-14.73-7.48-18.41-3.47-1.86-7.47-2.61-10.67-4.98-5.14-3.82-5.42-10.77-3.47-16.42,3.69-10.7,16.85-16.87,25.6-22.87,1.98-1.36.1-4.61-1.89-3.24-8.22,5.64-18.71,10.91-24.46,19.35-4.4,6.47-6.05,16.28-1.25,22.99,5.12,7.16,17.61,6.07,20.45,15.07,3.8,12.01-12.49,17.65-17.49,26.14-.68,1.15.17,2.94,1.62,2.82,11.2-.89,22.51-2.78,29.84-12.15,6.27-8.02,8.11-20.68,2.24-29.47-2.76-4.14-6.98-5.87-11.66-6.93-6.81-1.55-15.56-5.27-12.38-14.16,2.04-5.69,8.19-7.93,12.1-12.06,3.56-3.77,5.27-8.08,4.49-13.22-.36-2.38-3.97-1.37-3.62,1h0Z"/><ellipse class="cls-2" cx="207.68" cy="173.52" rx="99.35" ry="19.59" transform="translate(-1.31 1.58) rotate(-.43)"/></svg>