<?xml version="1.0" encoding="UTF-8"?><svg id="Layer_1" xmlns="http://www.w3.org/2000/svg" width="91.24mm" height="103.49mm" viewBox="0 0 258.64 293.37"><defs><style>.cls-1{fill:#c49a6c;stroke:#231f20;stroke-miterlimit:10;stroke-width:.25px;}.cls-2{fill:#2bb673;}.cls-2,.cls-3,.cls-4{stroke-width:0px;}.cls-3{fill:#3c2415;}.cls-4{fill:#231f20;}</style></defs><path class="cls-3" d="m67.17,129.18c26.21.14,52.42.28,78.62.41,6.18.03,12.36.12,18.54.09,4.48-.02,9.34-.19,13.12-2.92,7.2-5.21,5.53-15.86,4.56-23.44-1.2-9.45-4.21-18.54-10.71-25.69-6.08-6.69-14.31-11.24-22.82-14.09-19.57-6.55-41.84-3.82-59.52,6.74-19.11,11.41-29.96,32.25-25.98,54.43.43,2.37,4.04,1.37,3.62-1-7.45-41.48,38.82-66.58,74.72-58.29,18.42,4.26,33.14,15.81,36.5,35.08,1.41,8.11,4.24,22.18-6.47,24.89-4.95,1.25-10.67.52-15.74.49-5.57-.03-11.14-.06-16.71-.09-23.91-.13-47.83-.25-71.74-.38-2.41-.01-2.42,3.74,0,3.75h0Z"/><polygon class="cls-1" points="69.75 164.84 102.66 158.05 125.89 164.84 153.51 158.05 176.21 166.78 173.71 268.39 76.36 263.58 69.75 164.84"/><path class="cls-2" d="m108.28,186.13c6.24-20.66,14.64-40.27,23.26-59.66,16.34-36.77,33.54-73,51.56-108.64,3.88,3.94,7.76,7.88,11.64,11.82-30.64,49.46-54.58,104.85-70.59,163.36-5.48.02-10.92-2.65-14.82-7.25"/><path class="cls-4" d="m110.09,186.63c8.94-29.27,21.95-57.16,34.68-84.93,12.79-27.89,26.11-55.54,39.95-82.93l-2.94.38c3.88,3.94,7.76,7.88,11.64,11.82l-.29-2.27c-31.39,50.83-54.94,106.24-70.78,163.81l1.81-1.38c-5.49-.23-9.84-2.69-13.5-6.7-1.63-1.79-4.28.87-2.65,2.65,4.34,4.75,9.68,7.53,16.15,7.8.82.03,1.6-.61,1.81-1.38,15.77-57.28,39.18-112.33,70.4-162.91.44-.71.28-1.69-.29-2.27-3.88-3.94-7.76-7.88-11.64-11.82-.81-.82-2.4-.7-2.94.38-14.13,27.97-27.73,56.2-40.76,84.69-12.57,27.48-25.4,55.1-34.25,84.05-.71,2.31,2.91,3.3,3.62,1h0Z"/><path class="cls-4" d="m131.23,228.01c-6.05,2.96-12.1,5.92-18.15,8.89-1.21.59-1.24,2.66,0,3.24,9.75,4.58,19.51,9.15,29.26,13.73.9.42,2.05.28,2.57-.67,4.72-8.64,13.57-13.46,22.97-15.34,1.6-.32,1.8-2.67.45-3.43-4.94-2.77-9.89-5.54-14.83-8.3-4.06-2.27-8.57-5.75-13.23-6.63-6.65-1.26-10.6,4.02-12.61,9.6-.82,2.27,2.8,3.25,3.62,1,.85-2.34,2.07-5.15,4.39-6.4,3.96-2.13,9.07,1.83,12.45,3.72,6.11,3.42,12.21,6.84,18.32,10.26.15-1.14.3-2.28.45-3.43-10.32,2.06-20.06,7.62-25.22,17.06l2.57-.67c-9.75-4.58-19.51-9.15-29.26-13.73v3.24c6.05-2.96,12.1-5.92,18.15-8.89,2.17-1.06.27-4.3-1.89-3.24h0Z"/><path class="cls-4" d="m130.41,197.19c3.76-1.15,7.52-2.3,11.29-3.45,4.64-1.42,5.38-.96,9.22,2.1,5.92,4.72,11.84,9.44,17.76,14.15l.83-3.13c-11.38,2.28-22.76,4.56-34.15,6.84l2.31,1.31c-2.11-7.45-4.22-14.9-6.34-22.34-.66-2.32-4.28-1.33-3.62,1,2.11,7.45,4.22,14.9,6.34,22.34.29,1.03,1.3,1.51,2.31,1.31,11.38-2.28,22.76-4.56,34.15-6.84,1.3-.26,1.91-2.27.83-3.13-7.21-5.74-14.4-11.5-21.62-17.23-2.92-2.31-3.32-1.73-7.13-.56-4.39,1.34-8.78,2.68-13.17,4.03-2.3.7-1.32,4.32,1,3.62h0Z"/><path class="cls-4" d="m97.47,229.54c-4.82,2.66-9.63,5.33-14.45,7.99-1.55.86-.94,2.85.45,3.43,7.75,3.19,14.69,7.97,19.74,14.72.84,1.12,3.14,1.33,3.43-.45.76-4.68,3.44-7.84,7.42-10.29,1.27-.78,1.14-2.43,0-3.24-5.25-3.74-10.5-7.48-15.74-11.21-1.97-1.4-3.84,1.85-1.89,3.24,5.25,3.74,10.5,7.48,15.74,11.21v-3.24c-4.72,2.91-8.23,6.94-9.14,12.53l3.43-.45c-5.69-7.62-13.24-12.85-21.98-16.45.15,1.14.3,2.28.45,3.43,4.82-2.66,9.63-5.33,14.45-7.99,2.11-1.17.22-4.41-1.89-3.24h0Z"/><path class="cls-4" d="m89.13,206.25c-.83,6.08-.38,11.73,1.49,17.58.32,1.02,1.28,1.52,2.31,1.31,8.94-1.81,17.92-2.45,27.03-2.09,1.49.06,2.24-1.62,1.62-2.82-4.13-7.94-8.26-15.88-12.39-23.81-.38-.74-1.34-1.06-2.12-.86-6.53,1.71-13.06,3.43-19.59,5.14-1.83.48-1.74,3.1,0,3.62l1.63,1.89c-1.38,1.98,1.87,3.86,3.24,1.89,2.43-3.49-.48-6.38-3.87-7.4v3.62c6.53-1.71,13.06-3.43,19.59-5.14l-2.12-.86c4.13,7.94,8.26,15.88,12.39,23.81.54-.94,1.08-1.88,1.62-2.82-9.43-.37-18.78.36-28.03,2.23l2.31,1.31c-1.65-5.16-2.22-10.2-1.49-15.59.32-2.36-3.29-3.38-3.62-1h0Z"/><path class="cls-4" d="m65.3,127.31c3.24,45.41,5.95,90.86,9.18,136.27.07,1.05.8,1.82,1.88,1.88,32.45,1.6,64.9,3.21,97.35,4.81,1.03.05,1.85-.9,1.88-1.88,1.19-48.26,2.38-96.52,3.57-144.79.06-2.41-3.69-2.41-3.75,0-1.19,48.26-2.38,96.52-3.57,144.79l1.88-1.88c-32.45-1.6-64.9-3.21-97.35-4.81l1.88,1.88c-3.24-45.41-5.95-90.86-9.18-136.27-.17-2.39-3.92-2.41-3.75,0h0Z"/></svg>