<?xml version="1.0" encoding="UTF-8"?><svg id="Layer_1" xmlns="http://www.w3.org/2000/svg" width="81.04mm" height="68.69mm" viewBox="0 0 229.72 194.72"><defs><style>.cls-1{fill:none;stroke-width:2px;}.cls-1,.cls-2{stroke:#603913;stroke-miterlimit:10;}.cls-2{stroke-width:3px;}.cls-2,.cls-3{fill:#fff;}.cls-4{fill:#603913;}.cls-4,.cls-3{stroke-width:0px;}</style></defs><ellipse class="cls-2" cx="113.82" cy="148.21" rx="84.89" ry="19.99" transform="translate(-1.12 .87) rotate(-.44)"/><path class="cls-2" d="m172.97,98.33c5.91,11.7-22.84,55.07-59.12,55.35-36.26.28-65.6-42.58-59.84-54.45,3.42-7.06,17.75-.11,61.3-.59,41.22-.45,54.3-6.96,57.66-.3Z"/><path class="cls-2" d="m176.39,102.46c56.51,4.67-7.19,32.91-18.11,33.1l18.11-33.1Z"/><path class="cls-1" d="m180.13,110.06c21.83,1.79-2.78,12.6-7,12.67l7-12.67Z"/><path class="cls-3" d="m120.14,22.13c.86,3.76-2.06,7.04-4.68,8.88-2.63,1.84-5.77,4.27-5.73,8.19.04,3.69,3,6.14,5.74,6.97,2.74.83,5.74.86,8.06,2.95,3.13,2.81,3.94,8.83,2.45,13.39s-4.83,7.73-8.4,9.37-7.4,1.95-11.18,2.25c1.63-3.11,4.46-4.62,6.86-6.69,2.4-2.06,4.65-5.55,3.99-9.23-.62-3.47-3.49-5.3-6.09-6.32s-5.52-1.9-7.1-4.8c-1.77-3.25-1.08-7.97.78-11.12,1.86-3.15,4.63-5.1,7.31-6.95,2.52-1.74,5.03-3.48,7.55-5.22"/><path class="cls-4" d="m118.27,22.13c.74,6.68-7.72,8.33-9.84,13.9-1.5,3.95.15,8.18,3.56,10.5,2.22,1.51,4.65,1.66,7.16,2.45,4.33,1.36,5.88,5.32,5.65,9.57-.55,10.15-9.95,13.01-18.41,13.7.54.94,1.08,1.88,1.62,2.82,2.83-4.57,8.35-6.4,10.41-11.61,1.59-4.02.65-8.27-2.65-11.07-4.55-3.86-12.4-3.31-10.66-11.87,1.48-7.29,9.94-11.24,15.52-15.1,1.97-1.36.1-4.62-1.89-3.24-7.8,5.39-21.39,12.75-16.86,24.57,1.94,5.07,6.52,5.23,10.56,7.85,9.4,6.09-4.6,13.62-7.67,18.58-.71,1.14.19,2.94,1.62,2.82,7.18-.59,14.35-1.88,18.85-8.07,3.39-4.66,4.46-11.26,2.03-16.61-1.13-2.49-2.82-4.2-5.32-5.33-3.62-1.63-10.22-1.08-10.35-6.79-.11-4.62,5.55-6.46,8.04-9.5,1.86-2.27,2.69-4.67,2.37-7.58-.26-2.37-4.02-2.4-3.75,0h0Z"/><ellipse class="cls-2" cx="113.1" cy="95.65" rx="59.86" ry="11.9" transform="translate(-.72 .86) rotate(-.44)"/></svg>