<?xml version="1.0" encoding="UTF-8"?><svg id="Layer_1" xmlns="http://www.w3.org/2000/svg" width="88.32mm" height="92.57mm" viewBox="0 0 250.35 262.41"><defs><style>.cls-1{fill:#28aae2;}.cls-1,.cls-2,.cls-3,.cls-4{stroke:#231f20;stroke-miterlimit:10;stroke-width:3px;}.cls-2{fill:#1d75bc;}.cls-3{fill:#fff;}.cls-4{fill:#00aeef;}.cls-5{fill:#231f20;stroke-width:0px;}</style></defs><polygon class="cls-1" points="79.61 22.14 58.2 68.49 134.8 112.38 155.5 59.72 79.61 22.14"/><polygon class="cls-2" points="188.45 91.06 134.8 112.38 155.5 59.72 188.45 91.06"/><polygon class="cls-4" points="134.8 241.88 134.8 112.38 188.45 91.06 193.04 223.91 134.8 241.88"/><polygon class="cls-4" points="58.2 197.41 58.2 68.49 134.8 112.38 134.8 241.88 58.2 197.41"/><polygon class="cls-3" points="58.2 105.9 134.8 141.79 134.8 204.89 58.2 161.87 58.2 105.9"/><path class="cls-5" d="m81.67,146.32c1.19-3.6,2.62-7.93,3.82-11.09l-.07-.03c-1.65,2.77-3.49,5.69-5.59,8.89l-7.39,11.25-1.57-.61,1.88-13.15c.56-3.89,1.13-7.43,1.8-10.63l-.05-.02c-1.22,3.16-2.92,7.38-4.47,11.14l-4.46,10.75-1.98-.77,10.52-25.04,2.64,1.03-1.81,13.39c-.49,3.4-.97,6.41-1.55,9.21l.07.03c1.35-2.41,2.96-4.99,4.85-7.92l7.4-11.21,2.64,1.03-8.4,25.86-2.02-.79,3.72-11.34Z"/><path class="cls-5" d="m81.09,158.89l16.73-22.61,10.05,3.92-1.02,2.76-6.83-2.67-2.38,8.37,5.98,2.33-1,2.72-5.71-2.23-2.65,9.39,5.88,2.3-1.02,2.76-7.67-2.99,2.6-9.27-4.93-1.92-5.89,7.99-2.14-.84Zm13.7-7.97l2.18-7.54c.35-1.25.81-2.93,1.23-4.23l-.1-.04c-.73,1.1-1.64,2.39-2.5,3.61l-4.82,6.64,4,1.56Z"/><path class="cls-5" d="m111.08,141.46l2.07.81-8.38,22.71,6.86,2.68-1.02,2.76-8.93-3.49,9.4-25.47Z"/><path class="cls-5" d="m122.32,145.84l2.07.81-4.53,12.28.07.03c.79-.82,1.55-1.56,2.27-2.23l8.43-7.65,2.57,1-9.8,8.54.85,17.11-2.45-.96-.67-14.57-2.56,2.2-3.58,9.71-2.07-.81,9.4-25.47Z"/></svg>