<?xml version="1.0" encoding="UTF-8"?><svg id="Layer_1" xmlns="http://www.w3.org/2000/svg" width="111.11mm" height="48.44mm" viewBox="0 0 314.96 137.31"><defs><style>.cls-1{fill:#531b0f;stroke-width:0px;}</style></defs><path class="cls-1" d="m78.46,58.75l-5.17.9c-.23-2.99-.73-5.56-1.49-7.72-.77-2.16-1.73-3.9-2.9-5.23-1.17-1.33-2.51-2.31-4.02-2.94-1.51-.63-3.15-.95-4.91-.95-.77,0-1.61.08-2.53.25-.92.17-1.78.53-2.59,1.1-.8.56-1.47,1.39-2.01,2.49-.54,1.1-.8,2.57-.8,4.43,0,1.59.3,2.91.89,3.94.59,1.03,1.4,1.89,2.41,2.59,1.01.7,2.19,1.28,3.53,1.74,1.34.47,2.75.91,4.22,1.34,1.47.43,2.99.95,4.54,1.54,1.55.6,3.05,1.33,4.51,2.19,2.76,1.73,4.9,4.25,6.43,7.57,1.53,3.32,2.3,7.84,2.3,13.55,0,3.92-.4,7.37-1.21,10.36-.8,2.99-1.93,5.48-3.39,7.47-1.46,1.99-3.19,3.5-5.2,4.53s-4.2,1.54-6.58,1.54c-2.83,0-5.14-.47-6.92-1.4-1.78-.93-3.3-1.99-4.57-3.19-.88-.86-1.67-1.29-2.36-1.29-.54,0-1.01.43-1.44,1.29-.42.86-.77,1.86-1.03,2.99h-5.23v-26.3l5.17-.6c.31,5.85,1.74,10.28,4.31,13.3,2.57,3.02,5.99,4.53,10.28,4.53,1.19,0,2.33-.13,3.42-.4,1.09-.26,2.05-.76,2.87-1.49.82-.73,1.47-1.76,1.95-3.09.48-1.33.72-3.05.72-5.18,0-2.26-.52-3.97-1.55-5.13-1.03-1.16-2.37-2.09-3.99-2.79-1.63-.7-3.46-1.28-5.49-1.74-2.03-.46-4.04-1.16-6.03-2.09-3.98-1.79-6.9-4.5-8.76-8.12-1.86-3.62-2.79-8.78-2.79-15.49,0-2.79.27-5.45.8-7.97.54-2.52,1.4-4.75,2.58-6.67,1.19-1.93,2.7-3.47,4.54-4.63,1.84-1.16,4.06-1.74,6.66-1.74,2.76,0,5.02.43,6.78,1.29,1.76.86,3.24,1.83,4.42,2.89.42.4.79.7,1.12.9.33.2.66.3,1.01.3.8,0,1.41-.31,1.81-.95.4-.63.81-1.58,1.23-2.84h4.42v24.91Z"/><path class="cls-1" d="m128.96,64.33l-5,.3c-.19-7.5-.87-12.82-2.04-15.94-1.17-3.12-2.86-4.68-5.08-4.68h-3.91v51.11c0,3.06,1.72,4.58,5.17,4.58v8.17h-22v-8.17c3.41,0,5.11-1.53,5.11-4.58v-51.11h-3.96c-2.22,0-3.91,1.56-5.06,4.68-1.15,3.12-1.84,8.44-2.07,15.94l-5-.3v-30.49h43.83v30.49Z"/><path class="cls-1" d="m166.99,96.71c.38,1.99,1.93,2.99,4.65,2.99v8.17h-23.04v-8.17h4.42c1.11,0,1.67-.6,1.67-1.79,0-.26-.06-.66-.17-1.2l-1.61-7.97h-15.51l-1.44,7.17c-.11.53-.17.96-.17,1.29,0,1.66.86,2.49,2.58,2.49h3.27v8.17h-16.26l-.06-8.17c1.65,0,2.84-.25,3.59-.75s1.22-1.21,1.41-2.14l12.87-62.96h11.6l12.18,62.86Zm-27.92-16.74h12.35l-5.97-32.48-6.38,32.48Z"/><path class="cls-1" d="m223.86,94.92c0,1.93-.17,3.73-.52,5.41-.34,1.68-.87,3.13-1.58,4.34-.71,1.22-1.63,2.17-2.76,2.86-1.13.69-2.48,1.03-4.05,1.03-1.84,0-3.4-.4-4.68-1.2-1.28-.8-2.33-1.89-3.13-3.29-.8-1.4-1.4-3.02-1.78-4.88-.38-1.86-.57-3.85-.57-5.98v-6.48c0-2.59-.09-4.75-.26-6.48-.17-1.73-.47-3.1-.89-4.13-.42-1.03-.98-1.78-1.67-2.24-.69-.46-1.57-.7-2.64-.7h-6.66v21.92c0,3.06,2.12,4.58,6.38,4.58v8.17h-23.15v-8.07c3.41,0,5.11-1.53,5.11-4.59v-48.6c0-3.06-1.7-4.59-5.11-4.59v-8.17h27.29c1.88,0,3.71.22,5.51.65,1.8.43,3.4,1.31,4.8,2.64,1.4,1.33,2.52,3.21,3.36,5.63.84,2.43,1.26,5.63,1.26,9.61,0,2.59-.23,4.87-.69,6.82-.46,1.96-1.06,3.64-1.81,5.03-.75,1.39-1.6,2.52-2.56,3.39-.96.86-1.95,1.49-2.99,1.89,1.03.53,1.94,1.25,2.73,2.15.78.9,1.46,2.05,2.01,3.45.55,1.4.98,3.12,1.26,5.15.29,2.03.43,4.41.43,7.15v8c0,1.47.17,2.55.52,3.25.34.7.78,1.05,1.32,1.05.57,0,1.03-.35,1.38-1.05s.52-1.78.52-3.24v-4.78h3.62v4.28Zm-31.19-50.41v20.32h7.35c2.14,0,3.71-.81,4.68-2.44.98-1.63,1.46-4.5,1.46-8.62,0-3.05-.48-5.36-1.44-6.92-.96-1.56-2.53-2.34-4.71-2.34h-7.35Z"/><path class="cls-1" d="m270.11,64.33l-5,.3c-.19-7.5-.87-12.82-2.04-15.94-1.17-3.12-2.86-4.68-5.08-4.68h-3.91v51.11c0,3.06,1.72,4.58,5.17,4.58v8.17h-22v-8.17c3.41,0,5.11-1.53,5.11-4.58v-51.11h-3.96c-2.22,0-3.91,1.56-5.06,4.68-1.15,3.12-1.84,8.44-2.07,15.94l-5-.3v-30.49h43.83v30.49Z"/></svg>