<?xml version="1.0" encoding="UTF-8"?><svg id="Layer_1" xmlns="http://www.w3.org/2000/svg" width="110.89mm" height="48.51mm" viewBox="0 0 314.33 137.52"><defs><style>.cls-1{fill:#531b0f;stroke-width:0px;}</style></defs><path class="cls-1" d="m44.1,68.63l-3.79.21c-.15-5.17-.66-8.83-1.55-10.98-.89-2.15-2.17-3.23-3.85-3.23h-2.96v35.2c0,2.1,1.31,3.16,3.92,3.16v5.63h-16.68v-5.63c2.58,0,3.88-1.05,3.88-3.16v-35.2h-3c-1.68,0-2.96,1.08-3.83,3.23-.87,2.15-1.39,5.81-1.57,10.98l-3.79-.21v-21h33.23v21Z"/><path class="cls-1" d="m83.64,89.7c0,1.33-.13,2.57-.39,3.73-.26,1.16-.66,2.16-1.2,2.99-.54.84-1.23,1.49-2.09,1.97-.86.47-1.88.71-3.07.71-1.39,0-2.58-.27-3.55-.82-.97-.55-1.76-1.3-2.38-2.26-.61-.96-1.06-2.08-1.35-3.36-.29-1.28-.44-2.65-.44-4.12v-4.46c0-1.78-.06-3.27-.2-4.46-.13-1.19-.36-2.14-.68-2.85-.32-.71-.74-1.22-1.26-1.54-.52-.32-1.19-.48-2-.48h-5.05v15.1c0,2.1,1.61,3.16,4.83,3.16v5.63h-17.55v-5.56c2.58,0,3.88-1.05,3.88-3.16v-33.48c0-2.11-1.29-3.16-3.88-3.16v-5.63h20.69c1.42,0,2.82.15,4.18.45,1.37.3,2.58.9,3.64,1.82,1.06.92,1.91,2.21,2.55,3.88.64,1.67.96,3.88.96,6.62,0,1.78-.17,3.35-.52,4.7-.35,1.35-.81,2.5-1.37,3.47-.57.96-1.21,1.74-1.94,2.33-.73.59-1.48,1.03-2.26,1.3.78.37,1.47.86,2.07,1.48.59.62,1.1,1.41,1.52,2.38.42.96.74,2.15.96,3.55.22,1.4.33,3.04.33,4.92v5.51c0,1.01.13,1.76.39,2.24.26.48.59.72,1,.72.44,0,.79-.24,1.05-.72.26-.48.39-1.22.39-2.23v-3.29h2.74v2.95Zm-23.65-34.72v14h5.57c1.63,0,2.81-.56,3.55-1.68.74-1.12,1.11-3.1,1.11-5.94,0-2.1-.36-3.69-1.09-4.77-.73-1.07-1.92-1.61-3.57-1.61h-5.57Z"/><path class="cls-1" d="m115.26,53.33c-.87,0-1.62.17-2.24.51-.62.34-1.05.81-1.28,1.4l-9.01,20.82v13.77c0,2.1,1.45,3.15,4.35,3.15v5.63h-17.55v-5.63c2.9,0,4.36-1.05,4.36-3.15v-13.77l-8.67-20.75c-.32-.78-.76-1.31-1.33-1.61s-1.23-.45-1.98-.45v-5.63h17.64v5.63h-2.57c-.87,0-1.31.46-1.31,1.37,0,.37.07.73.22,1.1l5.27,14.34,5.66-14.2c.12-.32.17-.64.17-.96,0-1.1-.52-1.65-1.57-1.65h-1.31v-5.63h11.15v5.7Z"/><path class="cls-1" d="m164.86,90.93c.29,1.37,1.47,2.06,3.53,2.06v5.63h-17.46v-5.63h3.35c.84,0,1.26-.41,1.26-1.24,0-.18-.04-.46-.13-.82l-1.22-5.49h-11.76l-1.09,4.94c-.09.37-.13.66-.13.89,0,1.14.65,1.72,1.96,1.72h2.48v5.63h-12.32l-.04-5.63c1.25,0,2.16-.17,2.72-.51.57-.34.92-.83,1.07-1.48l9.75-43.37h8.8l9.23,43.3Zm-21.17-11.53h9.36l-4.53-22.37-4.83,22.37Z"/><path class="cls-1" d="m199.96,64.38l-4.4.62c-.44-3.57-1.33-6.35-2.68-8.34-1.35-1.99-3.13-2.98-5.33-2.98-3.25,0-5.57,1.69-6.97,5.08-1.39,3.39-2.09,8.14-2.09,14.27,0,3.89.2,7.06.61,9.5.41,2.45.99,4.36,1.76,5.73.77,1.37,1.69,2.31,2.77,2.81,1.07.5,2.26.75,3.57.75.96,0,1.87-.17,2.72-.51.86-.34,1.62-.82,2.29-1.44.67-.62,1.2-1.37,1.59-2.26.39-.89.59-1.91.59-3.05v-3.29c0-2.1-1.31-3.16-3.92-3.16v-5.63h14.33v5.63c-2.61,0-3.92,1.05-3.92,3.16v17.36h-5.4l-.92-4.25c-.32.64-.76,1.28-1.33,1.92-.57.64-1.26,1.21-2.09,1.72-.83.5-1.79.91-2.87,1.24-1.09.32-2.3.48-3.64.48-1.92,0-3.79-.46-5.62-1.37s-3.46-2.41-4.9-4.49c-1.44-2.08-2.59-4.83-3.46-8.23-.87-3.41-1.31-7.58-1.31-12.52s.43-8.74,1.29-12.08c.86-3.34,2.01-6.08,3.46-8.23,1.45-2.15,3.14-3.73,5.05-4.73,1.92-1.01,3.92-1.51,6.01-1.51,2.26,0,4.2.42,5.79,1.27,1.6.85,2.86,1.96,3.79,3.33l.96-3.5h4.27v16.74Z"/><path class="cls-1" d="m239.2,90.93c.29,1.37,1.47,2.06,3.53,2.06v5.63h-17.46v-5.63h3.35c.84,0,1.26-.41,1.26-1.24,0-.18-.04-.46-.13-.82l-1.22-5.49h-11.76l-1.09,4.94c-.09.37-.13.66-.13.89,0,1.14.65,1.72,1.96,1.72h2.48v5.63h-12.32l-.04-5.63c1.25,0,2.16-.17,2.72-.51.57-.34.92-.83,1.07-1.48l9.75-43.37h8.8l9.23,43.3Zm-21.17-11.53h9.36l-4.53-22.37-4.83,22.37Z"/><path class="cls-1" d="m263.02,53.26c-2.58,0-3.88,1.05-3.88,3.16v33.42c0,2.1,1.29,3.16,3.88,3.16v5.63h-16.64v-5.63c2.61,0,3.92-1.05,3.92-3.16v-33.42c0-2.1-1.31-3.16-3.92-3.16v-5.63h16.64v5.63Z"/><path class="cls-1" d="m303.31,53.26c-2.58,0-3.88,1.05-3.88,3.16v42.2h-10.54l-13.63-38.43v29.64c0,2.1,1.29,3.16,3.88,3.16v5.63h-12.41v-5.63c2.58,0,3.88-1.05,3.88-3.16v-33.42c0-2.1-1.29-3.16-3.88-3.16v-5.63h14.15l13.94,39.39v-30.6c0-2.1-1.29-3.16-3.88-3.16v-5.63h12.37v5.63Z"/></svg>